M48
; DRILL file {KiCad (5.1.5)-3} date 11/26/2020 1:06:49 PM
; FORMAT={-:-/ absolute / inch / decimal}
; #@! TF.CreationDate,2020-11-26T13:06:49-06:00
; #@! TF.GenerationSoftware,Kicad,Pcbnew,(5.1.5)-3
FMAT,2
INCH
T1C0.0157
T2C0.0197
T3C0.0276
T4C0.0315
T5C0.0354
T6C0.0394
T7C0.0433
T8C0.0598
T9C0.1181
T10C0.1378
%
G90
G05
T1
X2.9187Y-3.2441
X2.9187Y-3.4016
X2.9187Y-3.5591
X2.9187Y-3.7166
X2.9187Y-3.8741
X2.9187Y-4.0315
X2.9187Y-4.189
X2.9187Y-4.3465
X2.9187Y-4.504
X2.9581Y-4.6221
X2.9975Y-3.3229
X2.9975Y-3.4804
X2.9975Y-4.2678
X2.9975Y-4.4252
X3.0369Y-3.5985
X3.0369Y-4.5434
X3.0762Y-3.9134
X3.155Y-3.0079
X3.155Y-3.4804
X3.155Y-4.1103
X3.155Y-4.2678
X3.155Y-4.4252
X3.155Y-4.7796
X3.2337Y-3.2441
X3.2337Y-3.5591
X3.2337Y-3.8347
X3.2337Y-4.504
X3.2337Y-4.6615
X3.2337Y-4.8583
X3.2731Y-3.3623
X3.2731Y-3.6772
X3.2731Y-3.9528
X3.2731Y-4.3071
X3.3124Y-3.4804
X3.3124Y-4.5827
X3.3124Y-4.7402
X3.3518Y-4.1103
X3.3518Y-4.3859
X3.3912Y-4.2284
X3.3912Y-4.504
X3.3912Y-4.6615
X3.3912Y-4.8583
X3.4306Y-3.5197
X3.4699Y-3.6378
X3.4699Y-4.0315
X3.4699Y-4.3465
X3.4699Y-4.5827
X3.4699Y-4.7402
X3.5487Y-4.8583
X3.6274Y-3.2441
X3.6274Y-3.4016
X3.6274Y-3.5591
X3.6274Y-3.7166
X3.6274Y-3.8741
X3.6274Y-4.0315
X3.6274Y-4.189
X3.6274Y-4.3465
X3.6274Y-4.504
X3.6668Y-4.8189
X3.7061Y-3.0079
X3.7455Y-3.2835
X3.7455Y-3.441
X3.7455Y-3.5985
X3.7455Y-3.756
X3.7455Y-3.9134
X3.7455Y-4.1497
X3.7455Y-4.3071
X3.7849Y-4.6615
X3.7849Y-4.8583
X3.8243Y-3.0473
X3.8636Y-4.7796
X3.8977Y-3.7021
X3.903Y-3.126
X3.903Y-3.2835
X3.903Y-3.441
X3.903Y-3.5985
X3.9424Y-3.0079
X3.9424Y-4.8583
X3.9817Y-3.3623
X3.9817Y-3.5197
X3.9817Y-3.6772
X3.9817Y-3.8347
X3.9817Y-3.9922
X4.0211Y-3.0867
X4.0605Y-3.2048
X4.0605Y-3.441
X4.0605Y-3.5985
X4.0605Y-3.756
X4.0605Y-4.2284
X4.0605Y-4.3859
X4.0605Y-4.6221
X4.0998Y-3.0079
X4.0998Y-4.8583
X4.1392Y-3.126
X4.1392Y-3.3623
X4.1392Y-3.5197
X4.1392Y-3.6772
X4.1392Y-3.8347
X4.1392Y-4.7008
X4.1786Y-4.2678
X4.1786Y-4.4252
X4.1786Y-4.5827
X4.218Y-3.0473
X4.218Y-3.2048
X4.218Y-3.441
X4.218Y-3.5985
X4.218Y-3.756
X4.218Y-4.0315
X4.2573Y-3.8741
X4.2573Y-4.8583
X4.2967Y-3.126
X4.2967Y-3.3623
X4.2967Y-3.5197
X4.2967Y-3.6772
X4.2967Y-4.6615
X4.3361Y-3.0079
X4.3361Y-3.7953
X4.3361Y-3.9528
X4.3361Y-4.1103
X4.3754Y-3.2048
X4.3754Y-4.2284
X4.3754Y-4.3859
X4.3754Y-4.5434
X4.3754Y-4.7402
X4.4148Y-3.0867
X4.4148Y-3.4804
X4.4148Y-3.7166
X4.4148Y-4.8583
X4.4542Y-3.9134
X4.4542Y-4.1497
X4.4542Y-4.6221
X4.4935Y-3.0079
X4.4935Y-3.1654
X4.4935Y-3.4016
X4.4935Y-4.2678
X4.5329Y-3.5197
X4.5329Y-3.756
X4.5329Y-3.9922
X4.5329Y-4.7008
X4.5723Y-3.0867
X4.5723Y-3.8741
X4.5723Y-4.1103
X4.5723Y-4.8189
X4.6117Y-3.2048
X4.6117Y-4.2284
X4.6117Y-4.6221
X4.651Y-3.0079
X4.651Y-3.4016
X4.651Y-3.5591
X4.651Y-3.7166
X4.651Y-4.504
X4.6904Y-3.126
X4.6904Y-3.2835
X4.6904Y-3.8347
X4.6904Y-4.8583
X4.7298Y-3.4804
X4.7298Y-3.9922
X4.7298Y-4.1497
X4.7298Y-4.3071
X4.7298Y-4.5827
X4.7298Y-4.7402
X4.7691Y-3.756
X4.7691Y-4.4252
X4.8085Y-3.2441
X4.8479Y-3.441
X4.8479Y-4.3465
X4.8479Y-4.6221
X4.9266Y-3.2835
X4.9266Y-3.5197
X4.9266Y-3.756
X4.9266Y-3.9528
X4.9266Y-4.4252
X4.966Y-3.4016
X4.966Y-3.6378
X4.966Y-4.0709
X4.966Y-4.2284
X4.966Y-4.5434
T2
X2.9035Y-3.0906
X2.9295Y-3.0279
X2.9295Y-3.1532
X2.9921Y-3.002
X2.9921Y-3.1791
X3.0548Y-3.0279
X3.0548Y-3.1532
X3.0807Y-3.0906
X4.7933Y-3.0906
X4.8193Y-3.0279
X4.8193Y-3.1532
X4.8819Y-3.002
X4.8819Y-3.1791
X4.9445Y-3.0279
X4.9445Y-3.1532
X4.9705Y-3.0906
X2.9035Y-4.7835
X2.9295Y-4.7208
X2.9295Y-4.8461
X2.9921Y-4.6949
X2.9921Y-4.872
X3.0548Y-4.7208
X3.0548Y-4.8461
X3.0807Y-4.7835
X4.7933Y-4.7835
X4.8193Y-4.7208
X4.8193Y-4.8461
X4.8819Y-4.6949
X4.8819Y-4.872
X4.9445Y-4.7208
X4.9445Y-4.8461
X4.9705Y-4.7835
T3
X4.4488Y-4.7244
X4.6488Y-4.7244
X3.1764Y-3.287
X3.3764Y-3.287
X4.5669Y-4.337
X4.5669Y-4.537
X4.4488Y-4.337
X4.4488Y-4.537
X4.4488Y-3.837
X4.4488Y-4.037
T4
X3.1795Y-4.0051
X3.3764Y-4.0051
X4.0429Y-4.1535
X4.2398Y-4.1535
X3.1795Y-3.7689
X3.3764Y-3.7689
X3.1795Y-4.587
X3.3764Y-4.587
X4.0429Y-4.7244
X4.2398Y-4.7244
X3.9913Y-4.287
X3.9913Y-4.387
X3.9913Y-4.487
X3.9913Y-4.587
X4.2913Y-4.287
X4.2913Y-4.387
X4.2913Y-4.487
X4.2913Y-4.587
X3.1795Y-3.887
X3.3764Y-3.887
X3.5854Y-4.7244
X3.7823Y-4.7244
X3.278Y-4.2
X3.278Y-4.3921
X3.5339Y-3.287
X3.5339Y-3.387
X3.5339Y-3.487
X3.5339Y-3.587
X3.5339Y-3.687
X3.5339Y-3.787
X3.5339Y-3.887
X3.5339Y-3.987
X3.5339Y-4.087
X3.5339Y-4.187
X3.5339Y-4.287
X3.5339Y-4.387
X3.5339Y-4.487
X3.5339Y-4.587
X3.8339Y-3.287
X3.8339Y-3.387
X3.8339Y-3.487
X3.8339Y-3.587
X3.8339Y-3.687
X3.8339Y-3.787
X3.8339Y-3.887
X3.8339Y-3.987
X3.8339Y-4.087
X3.8339Y-4.187
X3.8339Y-4.287
X3.8339Y-4.387
X3.8339Y-4.487
X3.8339Y-4.587
X4.6063Y-3.287
X4.6063Y-3.4839
T5
X4.7819Y-4.5079
X4.8819Y-4.5079
X4.7819Y-3.3661
X4.8819Y-3.3661
T6
X3.2205Y-3.0906
X3.3205Y-3.0906
X3.4205Y-3.0906
X3.5205Y-3.0906
X3.6205Y-3.0906
X3.7205Y-3.0906
X2.9921Y-3.687
X2.9921Y-3.787
X2.9921Y-3.887
X2.9921Y-3.987
X2.9921Y-4.087
X2.9921Y-4.187
T7
X4.4488Y-3.287
X4.4488Y-3.587
X3.1894Y-3.396
X3.1894Y-3.6519
X3.3665Y-3.396
X3.3665Y-3.6519
X4.0413Y-3.287
X4.1413Y-3.287
X4.2413Y-3.287
T8
X4.8622Y-3.637
X4.8622Y-3.837
X4.8622Y-4.037
X4.8622Y-4.237
T9
X2.9921Y-3.0906
X4.8819Y-3.0906
X2.9921Y-4.7835
X4.8819Y-4.7835
T10
X4.1413Y-3.9429
T0
M30
