%TF.GenerationSoftware,KiCad,Pcbnew,(5.1.5)-3*%
%TF.CreationDate,2020-11-26T13:06:47-06:00*%
%TF.ProjectId,CANdi_2,43414e64-695f-4322-9e6b-696361645f70,1A*%
%TF.SameCoordinates,Original*%
%TF.FileFunction,Legend,Top*%
%TF.FilePolarity,Positive*%
%FSLAX46Y46*%
G04 Gerber Fmt 4.6, Leading zero omitted, Abs format (unit mm)*
G04 Created by KiCad (PCBNEW (5.1.5)-3) date 2020-11-26 13:06:47*
%MOMM*%
%LPD*%
G04 APERTURE LIST*
%ADD10C,0.120000*%
%ADD11C,0.150000*%
%ADD12C,0.152400*%
%ADD13C,0.254000*%
%ADD14C,0.400000*%
%ADD15C,0.010000*%
G04 APERTURE END LIST*
D10*
X116000000Y-108920000D02*
X116920000Y-108000000D01*
X115080000Y-108000000D02*
X116000000Y-108920000D01*
X115080000Y-100000000D02*
X116920000Y-100000000D01*
X116920000Y-108000000D02*
X116920000Y-100000000D01*
X115080000Y-108000000D02*
X115080000Y-100000000D01*
D11*
X116357142Y-107068571D02*
X116404761Y-107116190D01*
X116452380Y-107259047D01*
X116452380Y-107354285D01*
X116404761Y-107497142D01*
X116309523Y-107592380D01*
X116214285Y-107640000D01*
X116023809Y-107687619D01*
X115880952Y-107687619D01*
X115690476Y-107640000D01*
X115595238Y-107592380D01*
X115500000Y-107497142D01*
X115452380Y-107354285D01*
X115452380Y-107259047D01*
X115500000Y-107116190D01*
X115547619Y-107068571D01*
X116166666Y-106687619D02*
X116166666Y-106211428D01*
X116452380Y-106782857D02*
X115452380Y-106449523D01*
X116452380Y-106116190D01*
X116452380Y-105782857D02*
X115452380Y-105782857D01*
X116452380Y-105211428D01*
X115452380Y-105211428D01*
X115452380Y-104116190D02*
X115452380Y-103544761D01*
X116452380Y-103830476D02*
X115452380Y-103830476D01*
X115928571Y-103211428D02*
X115928571Y-102878095D01*
X116452380Y-102735238D02*
X116452380Y-103211428D01*
X115452380Y-103211428D01*
X115452380Y-102735238D01*
X116452380Y-101735238D02*
X115976190Y-102068571D01*
X116452380Y-102306666D02*
X115452380Y-102306666D01*
X115452380Y-101925714D01*
X115500000Y-101830476D01*
X115547619Y-101782857D01*
X115642857Y-101735238D01*
X115785714Y-101735238D01*
X115880952Y-101782857D01*
X115928571Y-101830476D01*
X115976190Y-101925714D01*
X115976190Y-102306666D01*
X116452380Y-101306666D02*
X115452380Y-101306666D01*
X116166666Y-100973333D01*
X115452380Y-100640000D01*
X116452380Y-100640000D01*
D10*
X80470000Y-79830000D02*
X80470000Y-81400000D01*
X74670000Y-107680000D02*
X74670000Y-111750000D01*
D11*
X87971795Y-123735980D02*
X87971795Y-122735980D01*
X88209890Y-122735980D01*
X88352747Y-122783600D01*
X88447985Y-122878838D01*
X88495604Y-122974076D01*
X88543223Y-123164552D01*
X88543223Y-123307409D01*
X88495604Y-123497885D01*
X88447985Y-123593123D01*
X88352747Y-123688361D01*
X88209890Y-123735980D01*
X87971795Y-123735980D01*
X89352747Y-123688361D02*
X89257509Y-123735980D01*
X89067033Y-123735980D01*
X88971795Y-123688361D01*
X88924176Y-123593123D01*
X88924176Y-123212171D01*
X88971795Y-123116933D01*
X89067033Y-123069314D01*
X89257509Y-123069314D01*
X89352747Y-123116933D01*
X89400366Y-123212171D01*
X89400366Y-123307409D01*
X88924176Y-123402647D01*
X89781319Y-123688361D02*
X89876557Y-123735980D01*
X90067033Y-123735980D01*
X90162271Y-123688361D01*
X90209890Y-123593123D01*
X90209890Y-123545504D01*
X90162271Y-123450266D01*
X90067033Y-123402647D01*
X89924176Y-123402647D01*
X89828938Y-123355028D01*
X89781319Y-123259790D01*
X89781319Y-123212171D01*
X89828938Y-123116933D01*
X89924176Y-123069314D01*
X90067033Y-123069314D01*
X90162271Y-123116933D01*
X90638461Y-123735980D02*
X90638461Y-123069314D01*
X90638461Y-122735980D02*
X90590842Y-122783600D01*
X90638461Y-122831219D01*
X90686080Y-122783600D01*
X90638461Y-122735980D01*
X90638461Y-122831219D01*
X91543223Y-123069314D02*
X91543223Y-123878838D01*
X91495604Y-123974076D01*
X91447985Y-124021695D01*
X91352747Y-124069314D01*
X91209890Y-124069314D01*
X91114652Y-124021695D01*
X91543223Y-123688361D02*
X91447985Y-123735980D01*
X91257509Y-123735980D01*
X91162271Y-123688361D01*
X91114652Y-123640742D01*
X91067033Y-123545504D01*
X91067033Y-123259790D01*
X91114652Y-123164552D01*
X91162271Y-123116933D01*
X91257509Y-123069314D01*
X91447985Y-123069314D01*
X91543223Y-123116933D01*
X92019414Y-123069314D02*
X92019414Y-123735980D01*
X92019414Y-123164552D02*
X92067033Y-123116933D01*
X92162271Y-123069314D01*
X92305128Y-123069314D01*
X92400366Y-123116933D01*
X92447985Y-123212171D01*
X92447985Y-123735980D01*
X93305128Y-123688361D02*
X93209890Y-123735980D01*
X93019414Y-123735980D01*
X92924176Y-123688361D01*
X92876557Y-123593123D01*
X92876557Y-123212171D01*
X92924176Y-123116933D01*
X93019414Y-123069314D01*
X93209890Y-123069314D01*
X93305128Y-123116933D01*
X93352747Y-123212171D01*
X93352747Y-123307409D01*
X92876557Y-123402647D01*
X94209890Y-123735980D02*
X94209890Y-122735980D01*
X94209890Y-123688361D02*
X94114652Y-123735980D01*
X93924176Y-123735980D01*
X93828938Y-123688361D01*
X93781319Y-123640742D01*
X93733700Y-123545504D01*
X93733700Y-123259790D01*
X93781319Y-123164552D01*
X93828938Y-123116933D01*
X93924176Y-123069314D01*
X94114652Y-123069314D01*
X94209890Y-123116933D01*
X95447985Y-123735980D02*
X95447985Y-122735980D01*
X95447985Y-123116933D02*
X95543223Y-123069314D01*
X95733700Y-123069314D01*
X95828938Y-123116933D01*
X95876557Y-123164552D01*
X95924176Y-123259790D01*
X95924176Y-123545504D01*
X95876557Y-123640742D01*
X95828938Y-123688361D01*
X95733700Y-123735980D01*
X95543223Y-123735980D01*
X95447985Y-123688361D01*
X96257509Y-123069314D02*
X96495604Y-123735980D01*
X96733700Y-123069314D02*
X96495604Y-123735980D01*
X96400366Y-123974076D01*
X96352747Y-124021695D01*
X96257509Y-124069314D01*
X97114652Y-123640742D02*
X97162271Y-123688361D01*
X97114652Y-123735980D01*
X97067033Y-123688361D01*
X97114652Y-123640742D01*
X97114652Y-123735980D01*
X97114652Y-123116933D02*
X97162271Y-123164552D01*
X97114652Y-123212171D01*
X97067033Y-123164552D01*
X97114652Y-123116933D01*
X97114652Y-123212171D01*
X98352747Y-123735980D02*
X98352747Y-122735980D01*
X98686080Y-123450266D01*
X99019414Y-122735980D01*
X99019414Y-123735980D01*
X99495604Y-123735980D02*
X99495604Y-123069314D01*
X99495604Y-122735980D02*
X99447985Y-122783600D01*
X99495604Y-122831219D01*
X99543223Y-122783600D01*
X99495604Y-122735980D01*
X99495604Y-122831219D01*
X99971795Y-123735980D02*
X99971795Y-122735980D01*
X100067033Y-123355028D02*
X100352747Y-123735980D01*
X100352747Y-123069314D02*
X99971795Y-123450266D01*
X101162271Y-123688361D02*
X101067033Y-123735980D01*
X100876557Y-123735980D01*
X100781319Y-123688361D01*
X100733700Y-123593123D01*
X100733700Y-123212171D01*
X100781319Y-123116933D01*
X100876557Y-123069314D01*
X101067033Y-123069314D01*
X101162271Y-123116933D01*
X101209890Y-123212171D01*
X101209890Y-123307409D01*
X100733700Y-123402647D01*
X102400366Y-123735980D02*
X102400366Y-122735980D01*
X102971795Y-123735980D02*
X102543223Y-123164552D01*
X102971795Y-122735980D02*
X102400366Y-123307409D01*
X103828938Y-123069314D02*
X103828938Y-123735980D01*
X103400366Y-123069314D02*
X103400366Y-123593123D01*
X103447985Y-123688361D01*
X103543223Y-123735980D01*
X103686080Y-123735980D01*
X103781319Y-123688361D01*
X103828938Y-123640742D01*
X104257509Y-123688361D02*
X104352747Y-123735980D01*
X104543223Y-123735980D01*
X104638461Y-123688361D01*
X104686080Y-123593123D01*
X104686080Y-123545504D01*
X104638461Y-123450266D01*
X104543223Y-123402647D01*
X104400366Y-123402647D01*
X104305128Y-123355028D01*
X104257509Y-123259790D01*
X104257509Y-123212171D01*
X104305128Y-123116933D01*
X104400366Y-123069314D01*
X104543223Y-123069314D01*
X104638461Y-123116933D01*
X105114652Y-123735980D02*
X105114652Y-122735980D01*
X105543223Y-123735980D02*
X105543223Y-123212171D01*
X105495604Y-123116933D01*
X105400366Y-123069314D01*
X105257509Y-123069314D01*
X105162271Y-123116933D01*
X105114652Y-123164552D01*
X106019414Y-123069314D02*
X106019414Y-123735980D01*
X106019414Y-123164552D02*
X106067033Y-123116933D01*
X106162271Y-123069314D01*
X106305128Y-123069314D01*
X106400366Y-123116933D01*
X106447985Y-123212171D01*
X106447985Y-123735980D01*
X107305128Y-123688361D02*
X107209890Y-123735980D01*
X107019414Y-123735980D01*
X106924176Y-123688361D01*
X106876557Y-123593123D01*
X106876557Y-123212171D01*
X106924176Y-123116933D01*
X107019414Y-123069314D01*
X107209890Y-123069314D01*
X107305128Y-123116933D01*
X107352747Y-123212171D01*
X107352747Y-123307409D01*
X106876557Y-123402647D01*
X107781319Y-123735980D02*
X107781319Y-123069314D01*
X107781319Y-123259790D02*
X107828938Y-123164552D01*
X107876557Y-123116933D01*
X107971795Y-123069314D01*
X108067033Y-123069314D01*
X108400366Y-123735980D02*
X108400366Y-123069314D01*
X108400366Y-122735980D02*
X108352747Y-122783600D01*
X108400366Y-122831219D01*
X108447985Y-122783600D01*
X108400366Y-122735980D01*
X108400366Y-122831219D01*
X108876557Y-123735980D02*
X108876557Y-122735980D01*
X108971795Y-123355028D02*
X109257509Y-123735980D01*
X109257509Y-123069314D02*
X108876557Y-123450266D01*
X112242842Y-123719980D02*
X111671414Y-123719980D01*
X111957128Y-123719980D02*
X111957128Y-122719980D01*
X111861890Y-122862838D01*
X111766652Y-122958076D01*
X111671414Y-123005695D01*
X113195223Y-123719980D02*
X112623795Y-123719980D01*
X112909509Y-123719980D02*
X112909509Y-122719980D01*
X112814271Y-122862838D01*
X112719033Y-122958076D01*
X112623795Y-123005695D01*
X114338080Y-122672361D02*
X113480938Y-123958076D01*
X114623795Y-122815219D02*
X114671414Y-122767600D01*
X114766652Y-122719980D01*
X115004747Y-122719980D01*
X115099985Y-122767600D01*
X115147604Y-122815219D01*
X115195223Y-122910457D01*
X115195223Y-123005695D01*
X115147604Y-123148552D01*
X114576176Y-123719980D01*
X115195223Y-123719980D01*
X115576176Y-122815219D02*
X115623795Y-122767600D01*
X115719033Y-122719980D01*
X115957128Y-122719980D01*
X116052366Y-122767600D01*
X116099985Y-122815219D01*
X116147604Y-122910457D01*
X116147604Y-123005695D01*
X116099985Y-123148552D01*
X115528557Y-123719980D01*
X116147604Y-123719980D01*
X117290461Y-122672361D02*
X116433319Y-123958076D01*
X117576176Y-122815219D02*
X117623795Y-122767600D01*
X117719033Y-122719980D01*
X117957128Y-122719980D01*
X118052366Y-122767600D01*
X118099985Y-122815219D01*
X118147604Y-122910457D01*
X118147604Y-123005695D01*
X118099985Y-123148552D01*
X117528557Y-123719980D01*
X118147604Y-123719980D01*
X118766652Y-122719980D02*
X118861890Y-122719980D01*
X118957128Y-122767600D01*
X119004747Y-122815219D01*
X119052366Y-122910457D01*
X119099985Y-123100933D01*
X119099985Y-123339028D01*
X119052366Y-123529504D01*
X119004747Y-123624742D01*
X118957128Y-123672361D01*
X118861890Y-123719980D01*
X118766652Y-123719980D01*
X118671414Y-123672361D01*
X118623795Y-123624742D01*
X118576176Y-123529504D01*
X118528557Y-123339028D01*
X118528557Y-123100933D01*
X118576176Y-122910457D01*
X118623795Y-122815219D01*
X118671414Y-122767600D01*
X118766652Y-122719980D01*
D12*
X118343600Y-108239276D02*
X118304895Y-108316685D01*
X118304895Y-108432800D01*
X118343600Y-108548914D01*
X118421009Y-108626323D01*
X118498419Y-108665028D01*
X118653238Y-108703733D01*
X118769352Y-108703733D01*
X118924171Y-108665028D01*
X119001580Y-108626323D01*
X119078990Y-108548914D01*
X119117695Y-108432800D01*
X119117695Y-108355390D01*
X119078990Y-108239276D01*
X119040285Y-108200571D01*
X118769352Y-108200571D01*
X118769352Y-108355390D01*
X119117695Y-107852228D02*
X118304895Y-107852228D01*
X119117695Y-107387771D01*
X118304895Y-107387771D01*
X119117695Y-107000723D02*
X118304895Y-107000723D01*
X118304895Y-106807200D01*
X118343600Y-106691085D01*
X118421009Y-106613676D01*
X118498419Y-106574971D01*
X118653238Y-106536266D01*
X118769352Y-106536266D01*
X118924171Y-106574971D01*
X119001580Y-106613676D01*
X119078990Y-106691085D01*
X119117695Y-106807200D01*
X119117695Y-107000723D01*
X119117695Y-93386323D02*
X119117695Y-93850780D01*
X119117695Y-93618552D02*
X118304895Y-93618552D01*
X118421009Y-93695961D01*
X118498419Y-93773371D01*
X118537123Y-93850780D01*
X118382304Y-93076685D02*
X118343600Y-93037980D01*
X118304895Y-92960571D01*
X118304895Y-92767047D01*
X118343600Y-92689638D01*
X118382304Y-92650933D01*
X118459714Y-92612228D01*
X118537123Y-92612228D01*
X118653238Y-92650933D01*
X119117695Y-93115390D01*
X119117695Y-92612228D01*
X118304895Y-92380000D02*
X119117695Y-92109066D01*
X118304895Y-91838133D01*
X118808057Y-91567200D02*
X118808057Y-90947923D01*
X119117695Y-91257561D02*
X118498419Y-91257561D01*
X119040285Y-103565676D02*
X119078990Y-103604380D01*
X119117695Y-103720495D01*
X119117695Y-103797904D01*
X119078990Y-103914019D01*
X119001580Y-103991428D01*
X118924171Y-104030133D01*
X118769352Y-104068838D01*
X118653238Y-104068838D01*
X118498419Y-104030133D01*
X118421009Y-103991428D01*
X118343600Y-103914019D01*
X118304895Y-103797904D01*
X118304895Y-103720495D01*
X118343600Y-103604380D01*
X118382304Y-103565676D01*
X118885466Y-103256038D02*
X118885466Y-102868990D01*
X119117695Y-103333447D02*
X118304895Y-103062514D01*
X119117695Y-102791580D01*
X119117695Y-102520647D02*
X118304895Y-102520647D01*
X119117695Y-102056190D01*
X118304895Y-102056190D01*
X118808057Y-101669142D02*
X118808057Y-101049866D01*
X119040285Y-98485676D02*
X119078990Y-98524380D01*
X119117695Y-98640495D01*
X119117695Y-98717904D01*
X119078990Y-98834019D01*
X119001580Y-98911428D01*
X118924171Y-98950133D01*
X118769352Y-98988838D01*
X118653238Y-98988838D01*
X118498419Y-98950133D01*
X118421009Y-98911428D01*
X118343600Y-98834019D01*
X118304895Y-98717904D01*
X118304895Y-98640495D01*
X118343600Y-98524380D01*
X118382304Y-98485676D01*
X118885466Y-98176038D02*
X118885466Y-97788990D01*
X119117695Y-98253447D02*
X118304895Y-97982514D01*
X119117695Y-97711580D01*
X119117695Y-97440647D02*
X118304895Y-97440647D01*
X119117695Y-96976190D01*
X118304895Y-96976190D01*
X118808057Y-96589142D02*
X118808057Y-95969866D01*
X119117695Y-96279504D02*
X118498419Y-96279504D01*
D13*
X127500000Y-121500000D02*
G75*
G02X124000000Y-125000000I-3500000J0D01*
G01*
X124000000Y-75000000D02*
G75*
G02X127500000Y-78500000I0J-3500000D01*
G01*
X76000000Y-125000000D02*
G75*
G02X72500000Y-121500000I0J3500000D01*
G01*
X72500000Y-78500000D02*
G75*
G02X76000000Y-75000000I3500000J0D01*
G01*
X127500000Y-121500000D02*
X127500000Y-78500000D01*
X99272100Y-78764200D02*
X100772100Y-78764200D01*
X111022100Y-78764200D02*
X112022100Y-80764200D01*
X100772100Y-78764200D02*
X101772100Y-80764200D01*
X112022100Y-80764200D02*
X115620800Y-80764200D01*
X108772100Y-80764200D02*
X109772100Y-78764200D01*
X101772100Y-76264200D02*
X108772100Y-76264200D01*
X101772100Y-80764200D02*
X108772100Y-80764200D01*
X112022100Y-76264200D02*
X115620800Y-76264200D01*
X109772100Y-78764200D02*
X111022100Y-78764200D01*
X99272100Y-78264200D02*
X100772100Y-78264200D01*
X111022100Y-78264200D02*
X112022100Y-76264200D01*
D14*
X113656276Y-79745152D02*
X113656276Y-77245152D01*
X113656276Y-79626104D02*
X113418180Y-79745152D01*
X112941990Y-79745152D01*
X112703895Y-79626104D01*
X112584847Y-79507057D01*
X112465800Y-79268961D01*
X112465800Y-78554676D01*
X112584847Y-78316580D01*
X112703895Y-78197533D01*
X112941990Y-78078485D01*
X113418180Y-78078485D01*
X113656276Y-78197533D01*
X114846752Y-79745152D02*
X114846752Y-78078485D01*
X114846752Y-77245152D02*
X114727704Y-77364200D01*
X114846752Y-77483247D01*
X114965800Y-77364200D01*
X114846752Y-77245152D01*
X114846752Y-77483247D01*
X103599657Y-79507057D02*
X103480609Y-79626104D01*
X103123466Y-79745152D01*
X102885371Y-79745152D01*
X102528228Y-79626104D01*
X102290133Y-79388009D01*
X102171085Y-79149914D01*
X102052038Y-78673723D01*
X102052038Y-78316580D01*
X102171085Y-77840390D01*
X102290133Y-77602295D01*
X102528228Y-77364200D01*
X102885371Y-77245152D01*
X103123466Y-77245152D01*
X103480609Y-77364200D01*
X103599657Y-77483247D01*
X104552038Y-79030866D02*
X105742514Y-79030866D01*
X104313942Y-79745152D02*
X105147276Y-77245152D01*
X105980609Y-79745152D01*
X106813942Y-79745152D02*
X106813942Y-77245152D01*
X108242514Y-79745152D01*
X108242514Y-77245152D01*
D13*
X100772100Y-78264200D02*
X101772100Y-76264200D01*
X108772100Y-76264200D02*
X109772100Y-78264200D01*
X109772100Y-78264200D02*
X111022100Y-78264200D01*
X116620800Y-78764200D02*
X118120800Y-78764200D01*
X115620800Y-80764200D02*
X116620800Y-78764200D01*
X116620800Y-78264200D02*
X118120800Y-78264200D01*
X115620800Y-76264200D02*
X116620800Y-78264200D01*
X76000000Y-75000000D02*
X124000000Y-75000000D01*
X72500000Y-121500000D02*
X72500000Y-78500000D01*
X76000000Y-125000000D02*
X124000000Y-125000000D01*
D15*
G36*
X81750865Y-118710545D02*
G01*
X81806887Y-118723541D01*
X81888177Y-118766144D01*
X81953685Y-118826065D01*
X82001720Y-118899490D01*
X82030591Y-118982606D01*
X82038608Y-119071597D01*
X82024080Y-119162651D01*
X82014377Y-119191645D01*
X82000527Y-119231939D01*
X81996893Y-119256700D01*
X82002752Y-119273317D01*
X82005986Y-119277506D01*
X82080618Y-119365497D01*
X82168400Y-119468865D01*
X82266618Y-119584425D01*
X82372559Y-119708991D01*
X82483512Y-119839377D01*
X82596764Y-119972399D01*
X82709601Y-120104870D01*
X82819311Y-120233605D01*
X82923181Y-120355418D01*
X83018499Y-120467124D01*
X83102551Y-120565537D01*
X83166720Y-120640571D01*
X83501233Y-121031393D01*
X84238523Y-120170671D01*
X84347847Y-120042984D01*
X84452661Y-119920446D01*
X84551756Y-119804477D01*
X84643922Y-119696498D01*
X84727949Y-119597932D01*
X84802627Y-119510198D01*
X84866746Y-119434719D01*
X84919098Y-119372916D01*
X84958471Y-119326209D01*
X84983657Y-119296020D01*
X84993320Y-119283964D01*
X85002356Y-119265487D01*
X85002431Y-119243994D01*
X84992859Y-119211221D01*
X84985663Y-119191753D01*
X84963532Y-119100808D01*
X84964033Y-119053519D01*
X85186559Y-119053519D01*
X85197155Y-119110739D01*
X85225856Y-119154140D01*
X85268035Y-119180872D01*
X85319063Y-119188086D01*
X85374312Y-119172935D01*
X85377758Y-119171202D01*
X85415507Y-119139318D01*
X85436656Y-119095769D01*
X85441549Y-119047088D01*
X85430530Y-118999810D01*
X85403944Y-118960469D01*
X85365390Y-118936676D01*
X85319052Y-118924613D01*
X85283530Y-118928371D01*
X85248376Y-118950120D01*
X85232093Y-118964328D01*
X85202275Y-118996233D01*
X85188966Y-119025929D01*
X85186559Y-119053519D01*
X84964033Y-119053519D01*
X84964487Y-119010718D01*
X84986839Y-118925293D01*
X85028901Y-118848341D01*
X85088985Y-118783671D01*
X85165404Y-118735094D01*
X85193112Y-118723541D01*
X85227691Y-118715425D01*
X85275855Y-118709672D01*
X85316100Y-118707790D01*
X85407710Y-118717806D01*
X85488570Y-118750425D01*
X85560589Y-118806512D01*
X85580355Y-118827586D01*
X85632997Y-118904803D01*
X85662381Y-118987964D01*
X85668954Y-119073889D01*
X85653164Y-119159401D01*
X85615456Y-119241320D01*
X85556280Y-119316468D01*
X85505301Y-119361100D01*
X85472252Y-119386150D01*
X85522276Y-120306900D01*
X85530602Y-120457569D01*
X85538792Y-120600877D01*
X85546715Y-120734798D01*
X85554238Y-120857306D01*
X85561228Y-120966374D01*
X85567551Y-121059976D01*
X85573077Y-121136085D01*
X85577670Y-121192677D01*
X85581200Y-121227724D01*
X85583333Y-121239147D01*
X85598302Y-121238036D01*
X85633438Y-121227183D01*
X85685914Y-121207636D01*
X85752903Y-121180445D01*
X85826707Y-121148798D01*
X86059050Y-121046950D01*
X86061164Y-121038884D01*
X86294009Y-121038884D01*
X86301710Y-121085491D01*
X86327718Y-121127830D01*
X86363850Y-121155759D01*
X86414051Y-121169828D01*
X86466838Y-121161953D01*
X86508493Y-121137984D01*
X86543982Y-121093710D01*
X86556965Y-121042445D01*
X86546278Y-120989517D01*
X86542642Y-120981919D01*
X86515295Y-120943722D01*
X86478623Y-120923131D01*
X86425900Y-120916531D01*
X86420857Y-120916500D01*
X86368041Y-120926817D01*
X86328446Y-120954211D01*
X86303345Y-120993345D01*
X86294009Y-121038884D01*
X86061164Y-121038884D01*
X86079408Y-120969294D01*
X86114976Y-120876666D01*
X86167015Y-120800754D01*
X86232586Y-120742958D01*
X86308752Y-120704682D01*
X86392575Y-120687329D01*
X86481116Y-120692299D01*
X86571437Y-120720996D01*
X86585554Y-120727732D01*
X86664239Y-120779180D01*
X86721815Y-120844540D01*
X86758540Y-120924241D01*
X86774674Y-121018714D01*
X86775509Y-121043500D01*
X86764437Y-121134669D01*
X86731055Y-121217566D01*
X86678000Y-121288710D01*
X86607905Y-121344620D01*
X86523406Y-121381814D01*
X86518320Y-121383268D01*
X86476968Y-121395793D01*
X86451039Y-121409167D01*
X86432630Y-121430211D01*
X86413838Y-121465744D01*
X86407643Y-121478769D01*
X86396616Y-121503886D01*
X86377125Y-121550287D01*
X86350110Y-121615664D01*
X86316512Y-121697706D01*
X86277270Y-121794103D01*
X86233325Y-121902546D01*
X86185618Y-122020726D01*
X86135088Y-122146331D01*
X86084081Y-122273545D01*
X85795765Y-122993790D01*
X85834761Y-123055281D01*
X85876045Y-123142065D01*
X85893275Y-123232034D01*
X85886485Y-123321859D01*
X85855711Y-123408211D01*
X85830578Y-123450150D01*
X85767605Y-123521046D01*
X85693477Y-123571094D01*
X85611883Y-123599845D01*
X85526516Y-123606849D01*
X85441067Y-123591659D01*
X85359225Y-123553826D01*
X85306358Y-123513898D01*
X85246522Y-123448686D01*
X85209195Y-123378678D01*
X85192301Y-123298697D01*
X85191986Y-123252103D01*
X85409933Y-123252103D01*
X85411563Y-123279672D01*
X85433265Y-123324785D01*
X85471691Y-123357964D01*
X85519869Y-123376416D01*
X85570827Y-123377347D01*
X85613712Y-123360630D01*
X85648212Y-123324467D01*
X85665932Y-123277119D01*
X85666454Y-123226273D01*
X85649360Y-123179612D01*
X85625065Y-123152250D01*
X85583697Y-123132958D01*
X85532166Y-123126306D01*
X85482860Y-123133251D01*
X85466589Y-123140022D01*
X85439861Y-123166194D01*
X85419586Y-123207082D01*
X85409933Y-123252103D01*
X85191986Y-123252103D01*
X85191825Y-123228455D01*
X85197571Y-123174207D01*
X85207132Y-123125489D01*
X85218392Y-123092611D01*
X85248240Y-123048099D01*
X85290144Y-123000592D01*
X85334548Y-122960438D01*
X85351814Y-122948146D01*
X85381179Y-122929450D01*
X85354964Y-122460633D01*
X85349121Y-122354234D01*
X85343938Y-122256093D01*
X85339548Y-122169031D01*
X85336085Y-122095871D01*
X85333680Y-122039436D01*
X85332469Y-122002547D01*
X85332584Y-121988028D01*
X85332635Y-121987931D01*
X85345901Y-121980873D01*
X85376333Y-121966903D01*
X85418281Y-121948426D01*
X85466093Y-121927847D01*
X85514119Y-121907571D01*
X85556710Y-121890005D01*
X85588216Y-121877551D01*
X85602985Y-121872617D01*
X85603406Y-121872672D01*
X85604920Y-121885656D01*
X85607608Y-121920689D01*
X85611254Y-121974456D01*
X85615640Y-122043644D01*
X85620552Y-122124940D01*
X85625772Y-122215030D01*
X85625877Y-122216877D01*
X85631181Y-122307247D01*
X85636318Y-122389012D01*
X85641053Y-122458830D01*
X85645146Y-122513360D01*
X85648361Y-122549261D01*
X85650460Y-122563191D01*
X85650483Y-122563216D01*
X85657085Y-122553566D01*
X85672554Y-122521009D01*
X85696569Y-122466316D01*
X85728810Y-122390259D01*
X85768955Y-122293611D01*
X85816685Y-122177144D01*
X85871677Y-122041630D01*
X85933612Y-121887841D01*
X86001494Y-121718236D01*
X86038357Y-121625283D01*
X86071702Y-121540033D01*
X86100467Y-121465297D01*
X86123587Y-121403886D01*
X86140000Y-121358611D01*
X86148643Y-121332282D01*
X86149608Y-121326674D01*
X86136613Y-121329523D01*
X86104439Y-121341152D01*
X86057098Y-121359983D01*
X85998604Y-121384438D01*
X85955354Y-121403102D01*
X85881551Y-121435354D01*
X85795912Y-121472815D01*
X85701272Y-121514241D01*
X85600464Y-121558391D01*
X85496323Y-121604021D01*
X85391682Y-121649889D01*
X85289377Y-121694751D01*
X85192240Y-121737364D01*
X85103106Y-121776486D01*
X85024810Y-121810874D01*
X84960185Y-121839285D01*
X84912065Y-121860476D01*
X84883285Y-121873204D01*
X84877950Y-121875590D01*
X84858172Y-121884354D01*
X84817841Y-121902089D01*
X84759681Y-121927602D01*
X84686418Y-121959698D01*
X84600774Y-121997185D01*
X84505475Y-122038870D01*
X84403245Y-122083558D01*
X84369950Y-122098107D01*
X84266098Y-122143493D01*
X84168316Y-122186247D01*
X84079329Y-122225177D01*
X84001860Y-122259090D01*
X83938635Y-122286794D01*
X83892377Y-122307094D01*
X83865812Y-122318799D01*
X83861950Y-122320519D01*
X83836290Y-122331850D01*
X83792932Y-122350799D01*
X83737497Y-122374919D01*
X83675607Y-122401758D01*
X83662397Y-122407475D01*
X83500945Y-122477328D01*
X82976597Y-122248669D01*
X82866930Y-122200829D01*
X82763355Y-122155616D01*
X82668426Y-122114148D01*
X82584695Y-122077541D01*
X82514716Y-122046911D01*
X82461042Y-122023375D01*
X82426226Y-122008049D01*
X82414150Y-122002672D01*
X82390556Y-121992141D01*
X82345609Y-121972282D01*
X82281232Y-121943939D01*
X82199346Y-121907954D01*
X82101873Y-121865171D01*
X81990737Y-121816433D01*
X81867857Y-121762583D01*
X81735158Y-121704464D01*
X81594560Y-121642920D01*
X81447987Y-121578792D01*
X81379100Y-121548664D01*
X81252799Y-121493496D01*
X81147836Y-121447806D01*
X81062316Y-121410807D01*
X80998353Y-121383423D01*
X81709299Y-121383423D01*
X82220475Y-121606870D01*
X82346410Y-121661951D01*
X82481228Y-121720974D01*
X82619606Y-121781606D01*
X82756225Y-121841513D01*
X82885766Y-121898363D01*
X83002907Y-121949823D01*
X83102328Y-121993559D01*
X83106300Y-121995308D01*
X83197766Y-122035399D01*
X83282097Y-122071998D01*
X83356406Y-122103881D01*
X83417809Y-122129825D01*
X83463419Y-122148605D01*
X83490350Y-122158998D01*
X83496242Y-122160700D01*
X83512134Y-122155982D01*
X83547492Y-122142593D01*
X83598518Y-122122066D01*
X83661418Y-122095931D01*
X83732395Y-122065721D01*
X83743892Y-122060765D01*
X83797476Y-122037539D01*
X83869999Y-122005972D01*
X83958125Y-121967527D01*
X84058519Y-121923665D01*
X84167845Y-121875849D01*
X84282767Y-121825540D01*
X84399949Y-121774200D01*
X84516055Y-121723291D01*
X84627749Y-121674274D01*
X84731696Y-121628613D01*
X84824559Y-121587768D01*
X84903003Y-121553202D01*
X84963692Y-121526377D01*
X84992250Y-121513689D01*
X85025795Y-121498835D01*
X85074844Y-121477244D01*
X85131619Y-121452334D01*
X85166875Y-121436905D01*
X85222337Y-121412076D01*
X85258337Y-121393858D01*
X85278966Y-121379363D01*
X85288318Y-121365702D01*
X85290485Y-121349985D01*
X85290484Y-121349661D01*
X85289717Y-121320452D01*
X85287735Y-121269861D01*
X85284670Y-121200384D01*
X85280653Y-121114516D01*
X85275818Y-121014752D01*
X85270297Y-120903591D01*
X85264220Y-120783526D01*
X85257721Y-120657054D01*
X85250932Y-120526672D01*
X85243985Y-120394875D01*
X85237012Y-120264159D01*
X85230145Y-120137020D01*
X85223516Y-120015954D01*
X85217258Y-119903457D01*
X85211502Y-119802025D01*
X85206381Y-119714154D01*
X85202027Y-119642340D01*
X85198572Y-119589078D01*
X85196148Y-119556866D01*
X85195105Y-119548075D01*
X85182557Y-119533310D01*
X85177735Y-119532200D01*
X85167206Y-119541595D01*
X85141060Y-119569822D01*
X85099246Y-119616942D01*
X85041711Y-119683016D01*
X84968403Y-119768106D01*
X84879269Y-119872273D01*
X84774257Y-119995578D01*
X84653315Y-120138082D01*
X84516391Y-120299848D01*
X84363433Y-120480935D01*
X84194387Y-120681406D01*
X84009203Y-120901322D01*
X83887350Y-121046167D01*
X83809994Y-121137991D01*
X83737637Y-121223578D01*
X83671913Y-121301016D01*
X83614454Y-121368395D01*
X83566895Y-121423805D01*
X83530868Y-121465337D01*
X83508008Y-121491079D01*
X83500000Y-121499174D01*
X83491043Y-121489684D01*
X83466961Y-121462175D01*
X83428969Y-121418077D01*
X83378281Y-121358819D01*
X83316112Y-121285830D01*
X83243675Y-121200538D01*
X83162185Y-121104373D01*
X83072855Y-120998764D01*
X82976902Y-120885139D01*
X82875538Y-120764929D01*
X82814200Y-120692102D01*
X82665741Y-120515752D01*
X82532798Y-120357832D01*
X82414510Y-120217357D01*
X82310014Y-120093344D01*
X82218450Y-119984807D01*
X82138955Y-119890762D01*
X82070667Y-119810225D01*
X82012725Y-119742210D01*
X81964268Y-119685735D01*
X81924432Y-119639813D01*
X81892358Y-119603461D01*
X81867182Y-119575694D01*
X81848044Y-119555527D01*
X81834082Y-119541977D01*
X81824433Y-119534058D01*
X81818236Y-119530786D01*
X81814630Y-119531177D01*
X81812752Y-119534246D01*
X81811742Y-119539008D01*
X81810737Y-119544479D01*
X81810509Y-119545392D01*
X81808656Y-119552970D01*
X81806897Y-119562282D01*
X81805123Y-119575059D01*
X81803229Y-119593030D01*
X81801104Y-119617926D01*
X81798642Y-119651475D01*
X81795734Y-119695409D01*
X81792274Y-119751456D01*
X81788151Y-119821347D01*
X81783260Y-119906811D01*
X81777492Y-120009579D01*
X81770739Y-120131379D01*
X81762893Y-120273943D01*
X81753847Y-120438999D01*
X81747177Y-120560900D01*
X81740002Y-120693263D01*
X81733271Y-120819714D01*
X81727114Y-120937658D01*
X81721661Y-121044500D01*
X81717041Y-121137644D01*
X81713384Y-121214496D01*
X81710821Y-121272459D01*
X81709480Y-121308939D01*
X81709309Y-121318236D01*
X81709299Y-121383423D01*
X80998353Y-121383423D01*
X80994344Y-121381707D01*
X80942027Y-121359716D01*
X80903471Y-121344045D01*
X80876781Y-121333902D01*
X80860063Y-121328499D01*
X80851422Y-121327045D01*
X80849364Y-121327702D01*
X80852934Y-121340052D01*
X80864993Y-121373260D01*
X80884472Y-121424650D01*
X80910303Y-121491546D01*
X80941418Y-121571271D01*
X80976749Y-121661151D01*
X81015229Y-121758508D01*
X81055789Y-121860666D01*
X81097363Y-121964951D01*
X81138880Y-122068685D01*
X81179275Y-122169192D01*
X81217478Y-122263798D01*
X81252423Y-122349824D01*
X81283041Y-122424596D01*
X81308264Y-122485438D01*
X81327024Y-122529673D01*
X81338253Y-122554625D01*
X81340764Y-122559094D01*
X81344865Y-122558582D01*
X81348830Y-122546791D01*
X81352843Y-122521715D01*
X81357083Y-122481351D01*
X81361731Y-122423691D01*
X81366970Y-122346731D01*
X81372979Y-122248466D01*
X81379941Y-122126889D01*
X81380159Y-122123000D01*
X81384575Y-122046616D01*
X81388732Y-121979466D01*
X81392365Y-121925460D01*
X81395210Y-121888504D01*
X81397001Y-121872507D01*
X81397139Y-121872174D01*
X81409274Y-121875678D01*
X81439972Y-121887574D01*
X81484563Y-121905982D01*
X81537168Y-121928498D01*
X81674069Y-121987998D01*
X81666479Y-122084074D01*
X81663628Y-122125755D01*
X81659992Y-122187440D01*
X81655858Y-122263754D01*
X81651515Y-122349322D01*
X81647250Y-122438771D01*
X81646013Y-122465900D01*
X81641917Y-122554871D01*
X81637789Y-122641043D01*
X81633891Y-122719190D01*
X81630488Y-122784086D01*
X81627840Y-122830503D01*
X81627195Y-122840596D01*
X81621252Y-122929543D01*
X81666253Y-122960377D01*
X81714185Y-123003641D01*
X81758360Y-123061762D01*
X81791260Y-123124479D01*
X81796185Y-123137720D01*
X81809773Y-123207458D01*
X81809133Y-123286078D01*
X81794948Y-123361899D01*
X81780856Y-123399833D01*
X81734167Y-123472369D01*
X81669858Y-123532953D01*
X81593577Y-123577955D01*
X81510974Y-123603746D01*
X81456169Y-123608485D01*
X81416992Y-123603924D01*
X81369017Y-123592821D01*
X81346187Y-123585718D01*
X81273464Y-123552165D01*
X81213797Y-123504154D01*
X81165176Y-123443800D01*
X81123942Y-123362544D01*
X81106292Y-123275406D01*
X81106496Y-123272328D01*
X81331644Y-123272328D01*
X81349157Y-123317357D01*
X81381355Y-123352608D01*
X81423266Y-123375147D01*
X81469916Y-123382041D01*
X81516332Y-123370355D01*
X81548509Y-123347126D01*
X81579902Y-123300488D01*
X81591397Y-123247500D01*
X81581323Y-123196197D01*
X81580335Y-123194055D01*
X81553574Y-123160690D01*
X81513050Y-123133979D01*
X81468562Y-123118958D01*
X81434702Y-123119203D01*
X81392833Y-123140421D01*
X81356098Y-123176914D01*
X81334178Y-123218968D01*
X81333789Y-123220456D01*
X81331644Y-123272328D01*
X81106496Y-123272328D01*
X81112225Y-123185936D01*
X81141740Y-123097680D01*
X81165235Y-123055285D01*
X81204229Y-122993798D01*
X80960112Y-122383774D01*
X80889600Y-122207645D01*
X80827869Y-122053650D01*
X80774306Y-121920326D01*
X80728296Y-121806208D01*
X80689229Y-121709832D01*
X80656489Y-121629733D01*
X80629465Y-121564448D01*
X80607543Y-121512510D01*
X80590110Y-121472458D01*
X80576552Y-121442825D01*
X80566257Y-121422148D01*
X80558612Y-121408963D01*
X80553003Y-121401804D01*
X80548818Y-121399208D01*
X80547827Y-121399100D01*
X80500977Y-121391146D01*
X80444773Y-121370057D01*
X80388467Y-121339988D01*
X80344073Y-121307567D01*
X80280988Y-121237773D01*
X80241611Y-121159587D01*
X80225114Y-121071178D01*
X80224490Y-121043500D01*
X80224760Y-121038600D01*
X80443983Y-121038600D01*
X80453044Y-121084153D01*
X80485949Y-121130068D01*
X80491356Y-121135610D01*
X80518484Y-121159309D01*
X80543724Y-121168758D01*
X80579371Y-121167991D01*
X80587378Y-121167133D01*
X80637349Y-121154900D01*
X80672497Y-121133446D01*
X80694661Y-121095107D01*
X80701733Y-121046008D01*
X80694022Y-120995586D01*
X80671836Y-120953281D01*
X80666401Y-120947329D01*
X80622088Y-120918940D01*
X80572115Y-120911638D01*
X80522858Y-120924141D01*
X80480691Y-120955167D01*
X80457817Y-120989264D01*
X80443983Y-121038600D01*
X80224760Y-121038600D01*
X80227275Y-120992960D01*
X80233629Y-120946597D01*
X80240241Y-120920512D01*
X80282881Y-120839172D01*
X80342936Y-120773610D01*
X80416665Y-120725545D01*
X80500329Y-120696697D01*
X80590185Y-120688785D01*
X80682495Y-120703530D01*
X80700115Y-120709073D01*
X80764207Y-120742092D01*
X80824579Y-120793030D01*
X80873980Y-120854651D01*
X80902150Y-120910647D01*
X80916658Y-120952351D01*
X80928638Y-120985210D01*
X80940973Y-121011437D01*
X80956548Y-121033242D01*
X80978247Y-121052838D01*
X81008956Y-121072436D01*
X81051558Y-121094248D01*
X81108937Y-121120487D01*
X81183979Y-121153364D01*
X81264438Y-121188457D01*
X81318031Y-121211590D01*
X81363008Y-121230372D01*
X81394344Y-121242745D01*
X81406738Y-121246700D01*
X81414982Y-121235650D01*
X81422621Y-121208717D01*
X81423222Y-121205425D01*
X81425291Y-121184864D01*
X81428505Y-121141599D01*
X81432717Y-121078292D01*
X81437779Y-120997605D01*
X81443543Y-120902201D01*
X81449861Y-120794742D01*
X81456585Y-120677890D01*
X81463567Y-120554307D01*
X81470658Y-120426657D01*
X81477712Y-120297602D01*
X81484579Y-120169803D01*
X81491112Y-120045924D01*
X81497163Y-119928626D01*
X81502584Y-119820573D01*
X81507226Y-119724426D01*
X81510943Y-119642848D01*
X81513415Y-119583000D01*
X81521412Y-119373450D01*
X81476785Y-119344011D01*
X81423239Y-119295603D01*
X81378110Y-119230029D01*
X81345450Y-119155145D01*
X81329313Y-119078806D01*
X81328470Y-119060007D01*
X81556900Y-119060007D01*
X81560467Y-119095407D01*
X81574877Y-119122864D01*
X81603385Y-119151283D01*
X81635741Y-119176516D01*
X81662737Y-119186713D01*
X81695779Y-119185921D01*
X81699621Y-119185425D01*
X81738545Y-119175563D01*
X81769771Y-119159965D01*
X81773307Y-119157090D01*
X81805058Y-119113540D01*
X81816572Y-119063601D01*
X81808854Y-119013756D01*
X81782908Y-118970490D01*
X81739740Y-118940284D01*
X81739703Y-118940268D01*
X81687356Y-118927495D01*
X81640823Y-118937479D01*
X81595126Y-118971334D01*
X81593372Y-118973073D01*
X81566413Y-119008631D01*
X81557154Y-119049191D01*
X81556900Y-119060007D01*
X81328470Y-119060007D01*
X81328300Y-119056236D01*
X81340198Y-118975055D01*
X81373341Y-118895660D01*
X81423901Y-118823900D01*
X81488050Y-118765627D01*
X81537366Y-118736743D01*
X81601729Y-118716467D01*
X81676641Y-118707551D01*
X81750865Y-118710545D01*
G37*
X81750865Y-118710545D02*
X81806887Y-118723541D01*
X81888177Y-118766144D01*
X81953685Y-118826065D01*
X82001720Y-118899490D01*
X82030591Y-118982606D01*
X82038608Y-119071597D01*
X82024080Y-119162651D01*
X82014377Y-119191645D01*
X82000527Y-119231939D01*
X81996893Y-119256700D01*
X82002752Y-119273317D01*
X82005986Y-119277506D01*
X82080618Y-119365497D01*
X82168400Y-119468865D01*
X82266618Y-119584425D01*
X82372559Y-119708991D01*
X82483512Y-119839377D01*
X82596764Y-119972399D01*
X82709601Y-120104870D01*
X82819311Y-120233605D01*
X82923181Y-120355418D01*
X83018499Y-120467124D01*
X83102551Y-120565537D01*
X83166720Y-120640571D01*
X83501233Y-121031393D01*
X84238523Y-120170671D01*
X84347847Y-120042984D01*
X84452661Y-119920446D01*
X84551756Y-119804477D01*
X84643922Y-119696498D01*
X84727949Y-119597932D01*
X84802627Y-119510198D01*
X84866746Y-119434719D01*
X84919098Y-119372916D01*
X84958471Y-119326209D01*
X84983657Y-119296020D01*
X84993320Y-119283964D01*
X85002356Y-119265487D01*
X85002431Y-119243994D01*
X84992859Y-119211221D01*
X84985663Y-119191753D01*
X84963532Y-119100808D01*
X84964033Y-119053519D01*
X85186559Y-119053519D01*
X85197155Y-119110739D01*
X85225856Y-119154140D01*
X85268035Y-119180872D01*
X85319063Y-119188086D01*
X85374312Y-119172935D01*
X85377758Y-119171202D01*
X85415507Y-119139318D01*
X85436656Y-119095769D01*
X85441549Y-119047088D01*
X85430530Y-118999810D01*
X85403944Y-118960469D01*
X85365390Y-118936676D01*
X85319052Y-118924613D01*
X85283530Y-118928371D01*
X85248376Y-118950120D01*
X85232093Y-118964328D01*
X85202275Y-118996233D01*
X85188966Y-119025929D01*
X85186559Y-119053519D01*
X84964033Y-119053519D01*
X84964487Y-119010718D01*
X84986839Y-118925293D01*
X85028901Y-118848341D01*
X85088985Y-118783671D01*
X85165404Y-118735094D01*
X85193112Y-118723541D01*
X85227691Y-118715425D01*
X85275855Y-118709672D01*
X85316100Y-118707790D01*
X85407710Y-118717806D01*
X85488570Y-118750425D01*
X85560589Y-118806512D01*
X85580355Y-118827586D01*
X85632997Y-118904803D01*
X85662381Y-118987964D01*
X85668954Y-119073889D01*
X85653164Y-119159401D01*
X85615456Y-119241320D01*
X85556280Y-119316468D01*
X85505301Y-119361100D01*
X85472252Y-119386150D01*
X85522276Y-120306900D01*
X85530602Y-120457569D01*
X85538792Y-120600877D01*
X85546715Y-120734798D01*
X85554238Y-120857306D01*
X85561228Y-120966374D01*
X85567551Y-121059976D01*
X85573077Y-121136085D01*
X85577670Y-121192677D01*
X85581200Y-121227724D01*
X85583333Y-121239147D01*
X85598302Y-121238036D01*
X85633438Y-121227183D01*
X85685914Y-121207636D01*
X85752903Y-121180445D01*
X85826707Y-121148798D01*
X86059050Y-121046950D01*
X86061164Y-121038884D01*
X86294009Y-121038884D01*
X86301710Y-121085491D01*
X86327718Y-121127830D01*
X86363850Y-121155759D01*
X86414051Y-121169828D01*
X86466838Y-121161953D01*
X86508493Y-121137984D01*
X86543982Y-121093710D01*
X86556965Y-121042445D01*
X86546278Y-120989517D01*
X86542642Y-120981919D01*
X86515295Y-120943722D01*
X86478623Y-120923131D01*
X86425900Y-120916531D01*
X86420857Y-120916500D01*
X86368041Y-120926817D01*
X86328446Y-120954211D01*
X86303345Y-120993345D01*
X86294009Y-121038884D01*
X86061164Y-121038884D01*
X86079408Y-120969294D01*
X86114976Y-120876666D01*
X86167015Y-120800754D01*
X86232586Y-120742958D01*
X86308752Y-120704682D01*
X86392575Y-120687329D01*
X86481116Y-120692299D01*
X86571437Y-120720996D01*
X86585554Y-120727732D01*
X86664239Y-120779180D01*
X86721815Y-120844540D01*
X86758540Y-120924241D01*
X86774674Y-121018714D01*
X86775509Y-121043500D01*
X86764437Y-121134669D01*
X86731055Y-121217566D01*
X86678000Y-121288710D01*
X86607905Y-121344620D01*
X86523406Y-121381814D01*
X86518320Y-121383268D01*
X86476968Y-121395793D01*
X86451039Y-121409167D01*
X86432630Y-121430211D01*
X86413838Y-121465744D01*
X86407643Y-121478769D01*
X86396616Y-121503886D01*
X86377125Y-121550287D01*
X86350110Y-121615664D01*
X86316512Y-121697706D01*
X86277270Y-121794103D01*
X86233325Y-121902546D01*
X86185618Y-122020726D01*
X86135088Y-122146331D01*
X86084081Y-122273545D01*
X85795765Y-122993790D01*
X85834761Y-123055281D01*
X85876045Y-123142065D01*
X85893275Y-123232034D01*
X85886485Y-123321859D01*
X85855711Y-123408211D01*
X85830578Y-123450150D01*
X85767605Y-123521046D01*
X85693477Y-123571094D01*
X85611883Y-123599845D01*
X85526516Y-123606849D01*
X85441067Y-123591659D01*
X85359225Y-123553826D01*
X85306358Y-123513898D01*
X85246522Y-123448686D01*
X85209195Y-123378678D01*
X85192301Y-123298697D01*
X85191986Y-123252103D01*
X85409933Y-123252103D01*
X85411563Y-123279672D01*
X85433265Y-123324785D01*
X85471691Y-123357964D01*
X85519869Y-123376416D01*
X85570827Y-123377347D01*
X85613712Y-123360630D01*
X85648212Y-123324467D01*
X85665932Y-123277119D01*
X85666454Y-123226273D01*
X85649360Y-123179612D01*
X85625065Y-123152250D01*
X85583697Y-123132958D01*
X85532166Y-123126306D01*
X85482860Y-123133251D01*
X85466589Y-123140022D01*
X85439861Y-123166194D01*
X85419586Y-123207082D01*
X85409933Y-123252103D01*
X85191986Y-123252103D01*
X85191825Y-123228455D01*
X85197571Y-123174207D01*
X85207132Y-123125489D01*
X85218392Y-123092611D01*
X85248240Y-123048099D01*
X85290144Y-123000592D01*
X85334548Y-122960438D01*
X85351814Y-122948146D01*
X85381179Y-122929450D01*
X85354964Y-122460633D01*
X85349121Y-122354234D01*
X85343938Y-122256093D01*
X85339548Y-122169031D01*
X85336085Y-122095871D01*
X85333680Y-122039436D01*
X85332469Y-122002547D01*
X85332584Y-121988028D01*
X85332635Y-121987931D01*
X85345901Y-121980873D01*
X85376333Y-121966903D01*
X85418281Y-121948426D01*
X85466093Y-121927847D01*
X85514119Y-121907571D01*
X85556710Y-121890005D01*
X85588216Y-121877551D01*
X85602985Y-121872617D01*
X85603406Y-121872672D01*
X85604920Y-121885656D01*
X85607608Y-121920689D01*
X85611254Y-121974456D01*
X85615640Y-122043644D01*
X85620552Y-122124940D01*
X85625772Y-122215030D01*
X85625877Y-122216877D01*
X85631181Y-122307247D01*
X85636318Y-122389012D01*
X85641053Y-122458830D01*
X85645146Y-122513360D01*
X85648361Y-122549261D01*
X85650460Y-122563191D01*
X85650483Y-122563216D01*
X85657085Y-122553566D01*
X85672554Y-122521009D01*
X85696569Y-122466316D01*
X85728810Y-122390259D01*
X85768955Y-122293611D01*
X85816685Y-122177144D01*
X85871677Y-122041630D01*
X85933612Y-121887841D01*
X86001494Y-121718236D01*
X86038357Y-121625283D01*
X86071702Y-121540033D01*
X86100467Y-121465297D01*
X86123587Y-121403886D01*
X86140000Y-121358611D01*
X86148643Y-121332282D01*
X86149608Y-121326674D01*
X86136613Y-121329523D01*
X86104439Y-121341152D01*
X86057098Y-121359983D01*
X85998604Y-121384438D01*
X85955354Y-121403102D01*
X85881551Y-121435354D01*
X85795912Y-121472815D01*
X85701272Y-121514241D01*
X85600464Y-121558391D01*
X85496323Y-121604021D01*
X85391682Y-121649889D01*
X85289377Y-121694751D01*
X85192240Y-121737364D01*
X85103106Y-121776486D01*
X85024810Y-121810874D01*
X84960185Y-121839285D01*
X84912065Y-121860476D01*
X84883285Y-121873204D01*
X84877950Y-121875590D01*
X84858172Y-121884354D01*
X84817841Y-121902089D01*
X84759681Y-121927602D01*
X84686418Y-121959698D01*
X84600774Y-121997185D01*
X84505475Y-122038870D01*
X84403245Y-122083558D01*
X84369950Y-122098107D01*
X84266098Y-122143493D01*
X84168316Y-122186247D01*
X84079329Y-122225177D01*
X84001860Y-122259090D01*
X83938635Y-122286794D01*
X83892377Y-122307094D01*
X83865812Y-122318799D01*
X83861950Y-122320519D01*
X83836290Y-122331850D01*
X83792932Y-122350799D01*
X83737497Y-122374919D01*
X83675607Y-122401758D01*
X83662397Y-122407475D01*
X83500945Y-122477328D01*
X82976597Y-122248669D01*
X82866930Y-122200829D01*
X82763355Y-122155616D01*
X82668426Y-122114148D01*
X82584695Y-122077541D01*
X82514716Y-122046911D01*
X82461042Y-122023375D01*
X82426226Y-122008049D01*
X82414150Y-122002672D01*
X82390556Y-121992141D01*
X82345609Y-121972282D01*
X82281232Y-121943939D01*
X82199346Y-121907954D01*
X82101873Y-121865171D01*
X81990737Y-121816433D01*
X81867857Y-121762583D01*
X81735158Y-121704464D01*
X81594560Y-121642920D01*
X81447987Y-121578792D01*
X81379100Y-121548664D01*
X81252799Y-121493496D01*
X81147836Y-121447806D01*
X81062316Y-121410807D01*
X80998353Y-121383423D01*
X81709299Y-121383423D01*
X82220475Y-121606870D01*
X82346410Y-121661951D01*
X82481228Y-121720974D01*
X82619606Y-121781606D01*
X82756225Y-121841513D01*
X82885766Y-121898363D01*
X83002907Y-121949823D01*
X83102328Y-121993559D01*
X83106300Y-121995308D01*
X83197766Y-122035399D01*
X83282097Y-122071998D01*
X83356406Y-122103881D01*
X83417809Y-122129825D01*
X83463419Y-122148605D01*
X83490350Y-122158998D01*
X83496242Y-122160700D01*
X83512134Y-122155982D01*
X83547492Y-122142593D01*
X83598518Y-122122066D01*
X83661418Y-122095931D01*
X83732395Y-122065721D01*
X83743892Y-122060765D01*
X83797476Y-122037539D01*
X83869999Y-122005972D01*
X83958125Y-121967527D01*
X84058519Y-121923665D01*
X84167845Y-121875849D01*
X84282767Y-121825540D01*
X84399949Y-121774200D01*
X84516055Y-121723291D01*
X84627749Y-121674274D01*
X84731696Y-121628613D01*
X84824559Y-121587768D01*
X84903003Y-121553202D01*
X84963692Y-121526377D01*
X84992250Y-121513689D01*
X85025795Y-121498835D01*
X85074844Y-121477244D01*
X85131619Y-121452334D01*
X85166875Y-121436905D01*
X85222337Y-121412076D01*
X85258337Y-121393858D01*
X85278966Y-121379363D01*
X85288318Y-121365702D01*
X85290485Y-121349985D01*
X85290484Y-121349661D01*
X85289717Y-121320452D01*
X85287735Y-121269861D01*
X85284670Y-121200384D01*
X85280653Y-121114516D01*
X85275818Y-121014752D01*
X85270297Y-120903591D01*
X85264220Y-120783526D01*
X85257721Y-120657054D01*
X85250932Y-120526672D01*
X85243985Y-120394875D01*
X85237012Y-120264159D01*
X85230145Y-120137020D01*
X85223516Y-120015954D01*
X85217258Y-119903457D01*
X85211502Y-119802025D01*
X85206381Y-119714154D01*
X85202027Y-119642340D01*
X85198572Y-119589078D01*
X85196148Y-119556866D01*
X85195105Y-119548075D01*
X85182557Y-119533310D01*
X85177735Y-119532200D01*
X85167206Y-119541595D01*
X85141060Y-119569822D01*
X85099246Y-119616942D01*
X85041711Y-119683016D01*
X84968403Y-119768106D01*
X84879269Y-119872273D01*
X84774257Y-119995578D01*
X84653315Y-120138082D01*
X84516391Y-120299848D01*
X84363433Y-120480935D01*
X84194387Y-120681406D01*
X84009203Y-120901322D01*
X83887350Y-121046167D01*
X83809994Y-121137991D01*
X83737637Y-121223578D01*
X83671913Y-121301016D01*
X83614454Y-121368395D01*
X83566895Y-121423805D01*
X83530868Y-121465337D01*
X83508008Y-121491079D01*
X83500000Y-121499174D01*
X83491043Y-121489684D01*
X83466961Y-121462175D01*
X83428969Y-121418077D01*
X83378281Y-121358819D01*
X83316112Y-121285830D01*
X83243675Y-121200538D01*
X83162185Y-121104373D01*
X83072855Y-120998764D01*
X82976902Y-120885139D01*
X82875538Y-120764929D01*
X82814200Y-120692102D01*
X82665741Y-120515752D01*
X82532798Y-120357832D01*
X82414510Y-120217357D01*
X82310014Y-120093344D01*
X82218450Y-119984807D01*
X82138955Y-119890762D01*
X82070667Y-119810225D01*
X82012725Y-119742210D01*
X81964268Y-119685735D01*
X81924432Y-119639813D01*
X81892358Y-119603461D01*
X81867182Y-119575694D01*
X81848044Y-119555527D01*
X81834082Y-119541977D01*
X81824433Y-119534058D01*
X81818236Y-119530786D01*
X81814630Y-119531177D01*
X81812752Y-119534246D01*
X81811742Y-119539008D01*
X81810737Y-119544479D01*
X81810509Y-119545392D01*
X81808656Y-119552970D01*
X81806897Y-119562282D01*
X81805123Y-119575059D01*
X81803229Y-119593030D01*
X81801104Y-119617926D01*
X81798642Y-119651475D01*
X81795734Y-119695409D01*
X81792274Y-119751456D01*
X81788151Y-119821347D01*
X81783260Y-119906811D01*
X81777492Y-120009579D01*
X81770739Y-120131379D01*
X81762893Y-120273943D01*
X81753847Y-120438999D01*
X81747177Y-120560900D01*
X81740002Y-120693263D01*
X81733271Y-120819714D01*
X81727114Y-120937658D01*
X81721661Y-121044500D01*
X81717041Y-121137644D01*
X81713384Y-121214496D01*
X81710821Y-121272459D01*
X81709480Y-121308939D01*
X81709309Y-121318236D01*
X81709299Y-121383423D01*
X80998353Y-121383423D01*
X80994344Y-121381707D01*
X80942027Y-121359716D01*
X80903471Y-121344045D01*
X80876781Y-121333902D01*
X80860063Y-121328499D01*
X80851422Y-121327045D01*
X80849364Y-121327702D01*
X80852934Y-121340052D01*
X80864993Y-121373260D01*
X80884472Y-121424650D01*
X80910303Y-121491546D01*
X80941418Y-121571271D01*
X80976749Y-121661151D01*
X81015229Y-121758508D01*
X81055789Y-121860666D01*
X81097363Y-121964951D01*
X81138880Y-122068685D01*
X81179275Y-122169192D01*
X81217478Y-122263798D01*
X81252423Y-122349824D01*
X81283041Y-122424596D01*
X81308264Y-122485438D01*
X81327024Y-122529673D01*
X81338253Y-122554625D01*
X81340764Y-122559094D01*
X81344865Y-122558582D01*
X81348830Y-122546791D01*
X81352843Y-122521715D01*
X81357083Y-122481351D01*
X81361731Y-122423691D01*
X81366970Y-122346731D01*
X81372979Y-122248466D01*
X81379941Y-122126889D01*
X81380159Y-122123000D01*
X81384575Y-122046616D01*
X81388732Y-121979466D01*
X81392365Y-121925460D01*
X81395210Y-121888504D01*
X81397001Y-121872507D01*
X81397139Y-121872174D01*
X81409274Y-121875678D01*
X81439972Y-121887574D01*
X81484563Y-121905982D01*
X81537168Y-121928498D01*
X81674069Y-121987998D01*
X81666479Y-122084074D01*
X81663628Y-122125755D01*
X81659992Y-122187440D01*
X81655858Y-122263754D01*
X81651515Y-122349322D01*
X81647250Y-122438771D01*
X81646013Y-122465900D01*
X81641917Y-122554871D01*
X81637789Y-122641043D01*
X81633891Y-122719190D01*
X81630488Y-122784086D01*
X81627840Y-122830503D01*
X81627195Y-122840596D01*
X81621252Y-122929543D01*
X81666253Y-122960377D01*
X81714185Y-123003641D01*
X81758360Y-123061762D01*
X81791260Y-123124479D01*
X81796185Y-123137720D01*
X81809773Y-123207458D01*
X81809133Y-123286078D01*
X81794948Y-123361899D01*
X81780856Y-123399833D01*
X81734167Y-123472369D01*
X81669858Y-123532953D01*
X81593577Y-123577955D01*
X81510974Y-123603746D01*
X81456169Y-123608485D01*
X81416992Y-123603924D01*
X81369017Y-123592821D01*
X81346187Y-123585718D01*
X81273464Y-123552165D01*
X81213797Y-123504154D01*
X81165176Y-123443800D01*
X81123942Y-123362544D01*
X81106292Y-123275406D01*
X81106496Y-123272328D01*
X81331644Y-123272328D01*
X81349157Y-123317357D01*
X81381355Y-123352608D01*
X81423266Y-123375147D01*
X81469916Y-123382041D01*
X81516332Y-123370355D01*
X81548509Y-123347126D01*
X81579902Y-123300488D01*
X81591397Y-123247500D01*
X81581323Y-123196197D01*
X81580335Y-123194055D01*
X81553574Y-123160690D01*
X81513050Y-123133979D01*
X81468562Y-123118958D01*
X81434702Y-123119203D01*
X81392833Y-123140421D01*
X81356098Y-123176914D01*
X81334178Y-123218968D01*
X81333789Y-123220456D01*
X81331644Y-123272328D01*
X81106496Y-123272328D01*
X81112225Y-123185936D01*
X81141740Y-123097680D01*
X81165235Y-123055285D01*
X81204229Y-122993798D01*
X80960112Y-122383774D01*
X80889600Y-122207645D01*
X80827869Y-122053650D01*
X80774306Y-121920326D01*
X80728296Y-121806208D01*
X80689229Y-121709832D01*
X80656489Y-121629733D01*
X80629465Y-121564448D01*
X80607543Y-121512510D01*
X80590110Y-121472458D01*
X80576552Y-121442825D01*
X80566257Y-121422148D01*
X80558612Y-121408963D01*
X80553003Y-121401804D01*
X80548818Y-121399208D01*
X80547827Y-121399100D01*
X80500977Y-121391146D01*
X80444773Y-121370057D01*
X80388467Y-121339988D01*
X80344073Y-121307567D01*
X80280988Y-121237773D01*
X80241611Y-121159587D01*
X80225114Y-121071178D01*
X80224490Y-121043500D01*
X80224760Y-121038600D01*
X80443983Y-121038600D01*
X80453044Y-121084153D01*
X80485949Y-121130068D01*
X80491356Y-121135610D01*
X80518484Y-121159309D01*
X80543724Y-121168758D01*
X80579371Y-121167991D01*
X80587378Y-121167133D01*
X80637349Y-121154900D01*
X80672497Y-121133446D01*
X80694661Y-121095107D01*
X80701733Y-121046008D01*
X80694022Y-120995586D01*
X80671836Y-120953281D01*
X80666401Y-120947329D01*
X80622088Y-120918940D01*
X80572115Y-120911638D01*
X80522858Y-120924141D01*
X80480691Y-120955167D01*
X80457817Y-120989264D01*
X80443983Y-121038600D01*
X80224760Y-121038600D01*
X80227275Y-120992960D01*
X80233629Y-120946597D01*
X80240241Y-120920512D01*
X80282881Y-120839172D01*
X80342936Y-120773610D01*
X80416665Y-120725545D01*
X80500329Y-120696697D01*
X80590185Y-120688785D01*
X80682495Y-120703530D01*
X80700115Y-120709073D01*
X80764207Y-120742092D01*
X80824579Y-120793030D01*
X80873980Y-120854651D01*
X80902150Y-120910647D01*
X80916658Y-120952351D01*
X80928638Y-120985210D01*
X80940973Y-121011437D01*
X80956548Y-121033242D01*
X80978247Y-121052838D01*
X81008956Y-121072436D01*
X81051558Y-121094248D01*
X81108937Y-121120487D01*
X81183979Y-121153364D01*
X81264438Y-121188457D01*
X81318031Y-121211590D01*
X81363008Y-121230372D01*
X81394344Y-121242745D01*
X81406738Y-121246700D01*
X81414982Y-121235650D01*
X81422621Y-121208717D01*
X81423222Y-121205425D01*
X81425291Y-121184864D01*
X81428505Y-121141599D01*
X81432717Y-121078292D01*
X81437779Y-120997605D01*
X81443543Y-120902201D01*
X81449861Y-120794742D01*
X81456585Y-120677890D01*
X81463567Y-120554307D01*
X81470658Y-120426657D01*
X81477712Y-120297602D01*
X81484579Y-120169803D01*
X81491112Y-120045924D01*
X81497163Y-119928626D01*
X81502584Y-119820573D01*
X81507226Y-119724426D01*
X81510943Y-119642848D01*
X81513415Y-119583000D01*
X81521412Y-119373450D01*
X81476785Y-119344011D01*
X81423239Y-119295603D01*
X81378110Y-119230029D01*
X81345450Y-119155145D01*
X81329313Y-119078806D01*
X81328470Y-119060007D01*
X81556900Y-119060007D01*
X81560467Y-119095407D01*
X81574877Y-119122864D01*
X81603385Y-119151283D01*
X81635741Y-119176516D01*
X81662737Y-119186713D01*
X81695779Y-119185921D01*
X81699621Y-119185425D01*
X81738545Y-119175563D01*
X81769771Y-119159965D01*
X81773307Y-119157090D01*
X81805058Y-119113540D01*
X81816572Y-119063601D01*
X81808854Y-119013756D01*
X81782908Y-118970490D01*
X81739740Y-118940284D01*
X81739703Y-118940268D01*
X81687356Y-118927495D01*
X81640823Y-118937479D01*
X81595126Y-118971334D01*
X81593372Y-118973073D01*
X81566413Y-119008631D01*
X81557154Y-119049191D01*
X81556900Y-119060007D01*
X81328470Y-119060007D01*
X81328300Y-119056236D01*
X81340198Y-118975055D01*
X81373341Y-118895660D01*
X81423901Y-118823900D01*
X81488050Y-118765627D01*
X81537366Y-118736743D01*
X81601729Y-118716467D01*
X81676641Y-118707551D01*
X81750865Y-118710545D01*
G36*
X84584071Y-122682004D02*
G01*
X84647225Y-122682830D01*
X84692255Y-122684602D01*
X84722799Y-122687639D01*
X84742493Y-122692265D01*
X84754976Y-122698800D01*
X84761681Y-122705025D01*
X84780039Y-122742501D01*
X84778809Y-122785807D01*
X84764700Y-122815897D01*
X84755302Y-122825643D01*
X84740842Y-122832637D01*
X84717133Y-122837472D01*
X84679986Y-122840740D01*
X84625213Y-122843032D01*
X84561157Y-122844667D01*
X84375614Y-122848785D01*
X84379132Y-123028817D01*
X84382650Y-123208850D01*
X84528256Y-123215200D01*
X84591016Y-123218186D01*
X84633302Y-123221433D01*
X84660026Y-123226138D01*
X84676097Y-123233498D01*
X84686426Y-123244708D01*
X84692759Y-123255292D01*
X84704709Y-123286268D01*
X84699471Y-123315408D01*
X84696533Y-123322222D01*
X84680142Y-123346770D01*
X84654427Y-123363640D01*
X84615222Y-123374038D01*
X84558362Y-123379171D01*
X84496123Y-123380300D01*
X84376300Y-123380300D01*
X84376300Y-123556741D01*
X84376697Y-123628485D01*
X84378171Y-123678728D01*
X84381147Y-123711359D01*
X84386050Y-123730270D01*
X84393302Y-123739349D01*
X84396388Y-123740891D01*
X84416255Y-123743821D01*
X84455943Y-123746238D01*
X84509875Y-123747908D01*
X84572472Y-123748594D01*
X84578570Y-123748600D01*
X84647045Y-123749026D01*
X84694724Y-123750695D01*
X84726203Y-123754188D01*
X84746078Y-123760090D01*
X84758945Y-123768982D01*
X84761681Y-123771825D01*
X84778783Y-123805771D01*
X84781442Y-123845687D01*
X84772722Y-123871630D01*
X84754564Y-123886847D01*
X84727639Y-123900205D01*
X84700980Y-123905246D01*
X84654769Y-123908975D01*
X84594689Y-123911401D01*
X84526421Y-123912531D01*
X84455647Y-123912373D01*
X84388048Y-123910934D01*
X84329306Y-123908224D01*
X84285104Y-123904249D01*
X84262358Y-123899562D01*
X84234977Y-123884596D01*
X84221277Y-123871792D01*
X84219263Y-123856281D01*
X84217381Y-123818008D01*
X84215677Y-123759611D01*
X84214196Y-123683730D01*
X84212983Y-123593002D01*
X84212083Y-123490065D01*
X84211539Y-123377558D01*
X84211394Y-123290193D01*
X84211398Y-123155141D01*
X84211570Y-123043217D01*
X84211999Y-122952151D01*
X84212775Y-122879672D01*
X84213986Y-122823508D01*
X84215722Y-122781389D01*
X84218071Y-122751043D01*
X84221122Y-122730199D01*
X84224965Y-122716587D01*
X84229689Y-122707934D01*
X84234425Y-122702818D01*
X84245826Y-122695347D01*
X84263528Y-122689846D01*
X84291122Y-122686027D01*
X84332197Y-122683608D01*
X84390345Y-122682302D01*
X84469156Y-122681824D01*
X84499156Y-122681800D01*
X84584071Y-122682004D01*
G37*
X84584071Y-122682004D02*
X84647225Y-122682830D01*
X84692255Y-122684602D01*
X84722799Y-122687639D01*
X84742493Y-122692265D01*
X84754976Y-122698800D01*
X84761681Y-122705025D01*
X84780039Y-122742501D01*
X84778809Y-122785807D01*
X84764700Y-122815897D01*
X84755302Y-122825643D01*
X84740842Y-122832637D01*
X84717133Y-122837472D01*
X84679986Y-122840740D01*
X84625213Y-122843032D01*
X84561157Y-122844667D01*
X84375614Y-122848785D01*
X84379132Y-123028817D01*
X84382650Y-123208850D01*
X84528256Y-123215200D01*
X84591016Y-123218186D01*
X84633302Y-123221433D01*
X84660026Y-123226138D01*
X84676097Y-123233498D01*
X84686426Y-123244708D01*
X84692759Y-123255292D01*
X84704709Y-123286268D01*
X84699471Y-123315408D01*
X84696533Y-123322222D01*
X84680142Y-123346770D01*
X84654427Y-123363640D01*
X84615222Y-123374038D01*
X84558362Y-123379171D01*
X84496123Y-123380300D01*
X84376300Y-123380300D01*
X84376300Y-123556741D01*
X84376697Y-123628485D01*
X84378171Y-123678728D01*
X84381147Y-123711359D01*
X84386050Y-123730270D01*
X84393302Y-123739349D01*
X84396388Y-123740891D01*
X84416255Y-123743821D01*
X84455943Y-123746238D01*
X84509875Y-123747908D01*
X84572472Y-123748594D01*
X84578570Y-123748600D01*
X84647045Y-123749026D01*
X84694724Y-123750695D01*
X84726203Y-123754188D01*
X84746078Y-123760090D01*
X84758945Y-123768982D01*
X84761681Y-123771825D01*
X84778783Y-123805771D01*
X84781442Y-123845687D01*
X84772722Y-123871630D01*
X84754564Y-123886847D01*
X84727639Y-123900205D01*
X84700980Y-123905246D01*
X84654769Y-123908975D01*
X84594689Y-123911401D01*
X84526421Y-123912531D01*
X84455647Y-123912373D01*
X84388048Y-123910934D01*
X84329306Y-123908224D01*
X84285104Y-123904249D01*
X84262358Y-123899562D01*
X84234977Y-123884596D01*
X84221277Y-123871792D01*
X84219263Y-123856281D01*
X84217381Y-123818008D01*
X84215677Y-123759611D01*
X84214196Y-123683730D01*
X84212983Y-123593002D01*
X84212083Y-123490065D01*
X84211539Y-123377558D01*
X84211394Y-123290193D01*
X84211398Y-123155141D01*
X84211570Y-123043217D01*
X84211999Y-122952151D01*
X84212775Y-122879672D01*
X84213986Y-122823508D01*
X84215722Y-122781389D01*
X84218071Y-122751043D01*
X84221122Y-122730199D01*
X84224965Y-122716587D01*
X84229689Y-122707934D01*
X84234425Y-122702818D01*
X84245826Y-122695347D01*
X84263528Y-122689846D01*
X84291122Y-122686027D01*
X84332197Y-122683608D01*
X84390345Y-122682302D01*
X84469156Y-122681824D01*
X84499156Y-122681800D01*
X84584071Y-122682004D01*
G36*
X83546165Y-122696642D02*
G01*
X83555181Y-122705025D01*
X83563002Y-122717046D01*
X83568656Y-122735722D01*
X83572474Y-122764844D01*
X83574784Y-122808208D01*
X83575916Y-122869606D01*
X83576200Y-122947159D01*
X83576959Y-123026134D01*
X83579091Y-123094180D01*
X83582377Y-123147247D01*
X83586598Y-123181286D01*
X83589346Y-123190634D01*
X83612198Y-123210453D01*
X83633582Y-123215200D01*
X83645889Y-123213798D01*
X83657606Y-123207878D01*
X83670193Y-123194863D01*
X83685111Y-123172178D01*
X83703821Y-123137249D01*
X83727785Y-123087498D01*
X83758463Y-123020353D01*
X83797317Y-122933236D01*
X83810755Y-122902889D01*
X83840373Y-122837830D01*
X83868085Y-122780400D01*
X83891679Y-122734931D01*
X83908939Y-122705756D01*
X83915590Y-122697675D01*
X83951328Y-122684077D01*
X83989764Y-122688795D01*
X84023041Y-122708266D01*
X84043303Y-122738923D01*
X84046100Y-122756894D01*
X84040997Y-122775126D01*
X84026706Y-122812735D01*
X84004749Y-122866066D01*
X83976647Y-122931465D01*
X83943925Y-123005277D01*
X83927319Y-123041973D01*
X83893552Y-123117407D01*
X83864338Y-123185183D01*
X83841052Y-123241897D01*
X83825071Y-123284142D01*
X83817771Y-123308512D01*
X83817828Y-123312954D01*
X83827685Y-123329732D01*
X83845281Y-123365445D01*
X83868764Y-123415840D01*
X83896279Y-123476664D01*
X83925971Y-123543664D01*
X83955987Y-123612587D01*
X83984472Y-123679179D01*
X84009573Y-123739188D01*
X84029435Y-123788359D01*
X84042203Y-123822440D01*
X84046100Y-123836579D01*
X84036061Y-123860925D01*
X84012011Y-123887415D01*
X83983046Y-123907653D01*
X83962545Y-123913700D01*
X83941986Y-123907284D01*
X83919223Y-123886701D01*
X83892990Y-123849947D01*
X83862022Y-123795018D01*
X83825050Y-123719908D01*
X83785997Y-123634300D01*
X83744286Y-123541793D01*
X83710698Y-123470927D01*
X83683742Y-123419829D01*
X83661928Y-123386629D01*
X83643764Y-123369457D01*
X83627761Y-123366440D01*
X83612428Y-123375710D01*
X83596273Y-123395394D01*
X83595970Y-123395825D01*
X83588430Y-123411182D01*
X83582997Y-123434931D01*
X83579368Y-123470825D01*
X83577239Y-123522619D01*
X83576310Y-123594064D01*
X83576200Y-123641048D01*
X83575755Y-123727112D01*
X83573920Y-123791272D01*
X83569938Y-123837014D01*
X83563056Y-123867827D01*
X83552519Y-123887197D01*
X83537571Y-123898611D01*
X83519050Y-123905144D01*
X83486697Y-123905950D01*
X83465905Y-123900792D01*
X83437583Y-123881106D01*
X83424630Y-123864451D01*
X83420770Y-123843969D01*
X83417552Y-123798235D01*
X83414979Y-123727388D01*
X83413054Y-123631570D01*
X83411781Y-123510919D01*
X83411163Y-123365576D01*
X83411100Y-123293947D01*
X83411133Y-123161971D01*
X83411305Y-123053015D01*
X83411723Y-122964702D01*
X83412497Y-122894653D01*
X83413734Y-122840489D01*
X83415542Y-122799830D01*
X83418030Y-122770299D01*
X83421306Y-122749517D01*
X83425478Y-122735104D01*
X83430654Y-122724683D01*
X83436942Y-122715873D01*
X83437421Y-122715262D01*
X83471176Y-122688823D01*
X83510111Y-122682383D01*
X83546165Y-122696642D01*
G37*
X83546165Y-122696642D02*
X83555181Y-122705025D01*
X83563002Y-122717046D01*
X83568656Y-122735722D01*
X83572474Y-122764844D01*
X83574784Y-122808208D01*
X83575916Y-122869606D01*
X83576200Y-122947159D01*
X83576959Y-123026134D01*
X83579091Y-123094180D01*
X83582377Y-123147247D01*
X83586598Y-123181286D01*
X83589346Y-123190634D01*
X83612198Y-123210453D01*
X83633582Y-123215200D01*
X83645889Y-123213798D01*
X83657606Y-123207878D01*
X83670193Y-123194863D01*
X83685111Y-123172178D01*
X83703821Y-123137249D01*
X83727785Y-123087498D01*
X83758463Y-123020353D01*
X83797317Y-122933236D01*
X83810755Y-122902889D01*
X83840373Y-122837830D01*
X83868085Y-122780400D01*
X83891679Y-122734931D01*
X83908939Y-122705756D01*
X83915590Y-122697675D01*
X83951328Y-122684077D01*
X83989764Y-122688795D01*
X84023041Y-122708266D01*
X84043303Y-122738923D01*
X84046100Y-122756894D01*
X84040997Y-122775126D01*
X84026706Y-122812735D01*
X84004749Y-122866066D01*
X83976647Y-122931465D01*
X83943925Y-123005277D01*
X83927319Y-123041973D01*
X83893552Y-123117407D01*
X83864338Y-123185183D01*
X83841052Y-123241897D01*
X83825071Y-123284142D01*
X83817771Y-123308512D01*
X83817828Y-123312954D01*
X83827685Y-123329732D01*
X83845281Y-123365445D01*
X83868764Y-123415840D01*
X83896279Y-123476664D01*
X83925971Y-123543664D01*
X83955987Y-123612587D01*
X83984472Y-123679179D01*
X84009573Y-123739188D01*
X84029435Y-123788359D01*
X84042203Y-123822440D01*
X84046100Y-123836579D01*
X84036061Y-123860925D01*
X84012011Y-123887415D01*
X83983046Y-123907653D01*
X83962545Y-123913700D01*
X83941986Y-123907284D01*
X83919223Y-123886701D01*
X83892990Y-123849947D01*
X83862022Y-123795018D01*
X83825050Y-123719908D01*
X83785997Y-123634300D01*
X83744286Y-123541793D01*
X83710698Y-123470927D01*
X83683742Y-123419829D01*
X83661928Y-123386629D01*
X83643764Y-123369457D01*
X83627761Y-123366440D01*
X83612428Y-123375710D01*
X83596273Y-123395394D01*
X83595970Y-123395825D01*
X83588430Y-123411182D01*
X83582997Y-123434931D01*
X83579368Y-123470825D01*
X83577239Y-123522619D01*
X83576310Y-123594064D01*
X83576200Y-123641048D01*
X83575755Y-123727112D01*
X83573920Y-123791272D01*
X83569938Y-123837014D01*
X83563056Y-123867827D01*
X83552519Y-123887197D01*
X83537571Y-123898611D01*
X83519050Y-123905144D01*
X83486697Y-123905950D01*
X83465905Y-123900792D01*
X83437583Y-123881106D01*
X83424630Y-123864451D01*
X83420770Y-123843969D01*
X83417552Y-123798235D01*
X83414979Y-123727388D01*
X83413054Y-123631570D01*
X83411781Y-123510919D01*
X83411163Y-123365576D01*
X83411100Y-123293947D01*
X83411133Y-123161971D01*
X83411305Y-123053015D01*
X83411723Y-122964702D01*
X83412497Y-122894653D01*
X83413734Y-122840489D01*
X83415542Y-122799830D01*
X83418030Y-122770299D01*
X83421306Y-122749517D01*
X83425478Y-122735104D01*
X83430654Y-122724683D01*
X83436942Y-122715873D01*
X83437421Y-122715262D01*
X83471176Y-122688823D01*
X83510111Y-122682383D01*
X83546165Y-122696642D01*
G36*
X82564285Y-122687017D02*
G01*
X82610183Y-122700036D01*
X82656381Y-122717799D01*
X82694692Y-122737128D01*
X82716933Y-122754843D01*
X82717755Y-122756066D01*
X82733263Y-122758684D01*
X82763523Y-122743839D01*
X82770736Y-122739100D01*
X82844324Y-122700238D01*
X82919624Y-122684344D01*
X82975376Y-122685706D01*
X83060241Y-122706124D01*
X83131537Y-122747234D01*
X83186946Y-122806955D01*
X83224153Y-122883207D01*
X83233292Y-122917272D01*
X83237343Y-122950841D01*
X83240459Y-123008418D01*
X83242615Y-123088629D01*
X83243782Y-123190098D01*
X83243934Y-123311451D01*
X83243308Y-123421658D01*
X83242222Y-123540210D01*
X83241043Y-123635938D01*
X83239631Y-123711417D01*
X83237844Y-123769223D01*
X83235542Y-123811930D01*
X83232584Y-123842115D01*
X83228829Y-123862353D01*
X83224135Y-123875219D01*
X83218363Y-123883290D01*
X83218029Y-123883627D01*
X83188274Y-123899700D01*
X83149930Y-123904705D01*
X83115171Y-123897992D01*
X83102701Y-123889801D01*
X83098283Y-123877913D01*
X83094437Y-123850620D01*
X83091092Y-123806309D01*
X83088177Y-123743369D01*
X83085620Y-123660190D01*
X83083350Y-123555159D01*
X83081295Y-123426666D01*
X83080900Y-123397676D01*
X83074550Y-122920983D01*
X83033074Y-122883941D01*
X82984636Y-122854724D01*
X82933763Y-122847398D01*
X82886137Y-122861014D01*
X82847442Y-122894621D01*
X82833862Y-122917254D01*
X82828535Y-122931802D01*
X82824236Y-122952412D01*
X82820861Y-122981670D01*
X82818306Y-123022160D01*
X82816469Y-123076469D01*
X82815246Y-123147181D01*
X82814534Y-123236883D01*
X82814231Y-123348159D01*
X82814200Y-123409872D01*
X82814200Y-123861056D01*
X82780737Y-123887378D01*
X82745625Y-123909120D01*
X82716861Y-123909595D01*
X82686325Y-123888411D01*
X82680272Y-123882527D01*
X82649100Y-123851354D01*
X82649100Y-123399296D01*
X82648990Y-123272591D01*
X82648449Y-123168813D01*
X82647156Y-123085487D01*
X82644792Y-123020141D01*
X82641035Y-122970300D01*
X82635567Y-122933491D01*
X82628067Y-122907241D01*
X82618216Y-122889075D01*
X82605692Y-122876522D01*
X82590178Y-122867106D01*
X82579604Y-122862072D01*
X82522438Y-122847726D01*
X82469366Y-122857258D01*
X82437083Y-122877532D01*
X82401450Y-122908165D01*
X82395100Y-123385097D01*
X82393297Y-123510627D01*
X82391479Y-123613097D01*
X82389526Y-123694849D01*
X82387317Y-123758222D01*
X82384734Y-123805559D01*
X82381655Y-123839199D01*
X82377960Y-123861484D01*
X82373529Y-123874753D01*
X82369700Y-123880151D01*
X82328896Y-123904003D01*
X82284576Y-123903644D01*
X82268100Y-123897175D01*
X82236350Y-123881206D01*
X82233025Y-123389240D01*
X82232239Y-123263936D01*
X82231808Y-123161440D01*
X82231832Y-123079159D01*
X82232415Y-123014502D01*
X82233656Y-122964876D01*
X82235657Y-122927689D01*
X82238521Y-122900351D01*
X82242348Y-122880268D01*
X82247239Y-122864850D01*
X82253297Y-122851504D01*
X82254137Y-122849861D01*
X82303693Y-122779779D01*
X82369330Y-122726528D01*
X82446407Y-122692966D01*
X82526871Y-122681924D01*
X82564285Y-122687017D01*
G37*
X82564285Y-122687017D02*
X82610183Y-122700036D01*
X82656381Y-122717799D01*
X82694692Y-122737128D01*
X82716933Y-122754843D01*
X82717755Y-122756066D01*
X82733263Y-122758684D01*
X82763523Y-122743839D01*
X82770736Y-122739100D01*
X82844324Y-122700238D01*
X82919624Y-122684344D01*
X82975376Y-122685706D01*
X83060241Y-122706124D01*
X83131537Y-122747234D01*
X83186946Y-122806955D01*
X83224153Y-122883207D01*
X83233292Y-122917272D01*
X83237343Y-122950841D01*
X83240459Y-123008418D01*
X83242615Y-123088629D01*
X83243782Y-123190098D01*
X83243934Y-123311451D01*
X83243308Y-123421658D01*
X83242222Y-123540210D01*
X83241043Y-123635938D01*
X83239631Y-123711417D01*
X83237844Y-123769223D01*
X83235542Y-123811930D01*
X83232584Y-123842115D01*
X83228829Y-123862353D01*
X83224135Y-123875219D01*
X83218363Y-123883290D01*
X83218029Y-123883627D01*
X83188274Y-123899700D01*
X83149930Y-123904705D01*
X83115171Y-123897992D01*
X83102701Y-123889801D01*
X83098283Y-123877913D01*
X83094437Y-123850620D01*
X83091092Y-123806309D01*
X83088177Y-123743369D01*
X83085620Y-123660190D01*
X83083350Y-123555159D01*
X83081295Y-123426666D01*
X83080900Y-123397676D01*
X83074550Y-122920983D01*
X83033074Y-122883941D01*
X82984636Y-122854724D01*
X82933763Y-122847398D01*
X82886137Y-122861014D01*
X82847442Y-122894621D01*
X82833862Y-122917254D01*
X82828535Y-122931802D01*
X82824236Y-122952412D01*
X82820861Y-122981670D01*
X82818306Y-123022160D01*
X82816469Y-123076469D01*
X82815246Y-123147181D01*
X82814534Y-123236883D01*
X82814231Y-123348159D01*
X82814200Y-123409872D01*
X82814200Y-123861056D01*
X82780737Y-123887378D01*
X82745625Y-123909120D01*
X82716861Y-123909595D01*
X82686325Y-123888411D01*
X82680272Y-123882527D01*
X82649100Y-123851354D01*
X82649100Y-123399296D01*
X82648990Y-123272591D01*
X82648449Y-123168813D01*
X82647156Y-123085487D01*
X82644792Y-123020141D01*
X82641035Y-122970300D01*
X82635567Y-122933491D01*
X82628067Y-122907241D01*
X82618216Y-122889075D01*
X82605692Y-122876522D01*
X82590178Y-122867106D01*
X82579604Y-122862072D01*
X82522438Y-122847726D01*
X82469366Y-122857258D01*
X82437083Y-122877532D01*
X82401450Y-122908165D01*
X82395100Y-123385097D01*
X82393297Y-123510627D01*
X82391479Y-123613097D01*
X82389526Y-123694849D01*
X82387317Y-123758222D01*
X82384734Y-123805559D01*
X82381655Y-123839199D01*
X82377960Y-123861484D01*
X82373529Y-123874753D01*
X82369700Y-123880151D01*
X82328896Y-123904003D01*
X82284576Y-123903644D01*
X82268100Y-123897175D01*
X82236350Y-123881206D01*
X82233025Y-123389240D01*
X82232239Y-123263936D01*
X82231808Y-123161440D01*
X82231832Y-123079159D01*
X82232415Y-123014502D01*
X82233656Y-122964876D01*
X82235657Y-122927689D01*
X82238521Y-122900351D01*
X82242348Y-122880268D01*
X82247239Y-122864850D01*
X82253297Y-122851504D01*
X82254137Y-122849861D01*
X82303693Y-122779779D01*
X82369330Y-122726528D01*
X82446407Y-122692966D01*
X82526871Y-122681924D01*
X82564285Y-122687017D01*
D10*
X117460000Y-119080000D02*
X113620000Y-119080000D01*
X117460000Y-120920000D02*
X113620000Y-120920000D01*
X112080000Y-98080000D02*
X112080000Y-101920000D01*
X113920000Y-98080000D02*
X113920000Y-101920000D01*
X125290000Y-116045000D02*
X125290000Y-112955000D01*
X125230000Y-114500000D02*
G75*
G03X125230000Y-114500000I-2500000J0D01*
G01*
X119740000Y-114500462D02*
G75*
G02X125290000Y-112955170I2990000J462D01*
G01*
X119740000Y-114499538D02*
G75*
G03X125290000Y-116044830I2990000J-462D01*
G01*
X125290000Y-87045000D02*
X125290000Y-83955000D01*
X125230000Y-85500000D02*
G75*
G03X125230000Y-85500000I-2500000J0D01*
G01*
X119740000Y-85500462D02*
G75*
G02X125290000Y-83955170I2990000J462D01*
G01*
X119740000Y-85499538D02*
G75*
G03X125290000Y-87044830I2990000J-462D01*
G01*
X80990000Y-97675000D02*
X80990000Y-97660000D01*
X80990000Y-99800000D02*
X80990000Y-99785000D01*
X85530000Y-97675000D02*
X85530000Y-97660000D01*
X85530000Y-99800000D02*
X85530000Y-99785000D01*
X85530000Y-97660000D02*
X80990000Y-97660000D01*
X85530000Y-99800000D02*
X80990000Y-99800000D01*
X114470000Y-85360000D02*
X111530000Y-85360000D01*
X114470000Y-85600000D02*
X111530000Y-85600000D01*
X114470000Y-85480000D02*
X111530000Y-85480000D01*
X111530000Y-90020000D02*
X111660000Y-90020000D01*
X111530000Y-84580000D02*
X111530000Y-90020000D01*
X111660000Y-84580000D02*
X111530000Y-84580000D01*
X114470000Y-90020000D02*
X114340000Y-90020000D01*
X114470000Y-84580000D02*
X114470000Y-90020000D01*
X114340000Y-84580000D02*
X114470000Y-84580000D01*
X107460000Y-106555000D02*
X107460000Y-106570000D01*
X107460000Y-104430000D02*
X107460000Y-104445000D01*
X102920000Y-106555000D02*
X102920000Y-106570000D01*
X102920000Y-104430000D02*
X102920000Y-104445000D01*
X102920000Y-106570000D02*
X107460000Y-106570000D01*
X102920000Y-104430000D02*
X107460000Y-104430000D01*
X80735000Y-112320000D02*
G75*
G03X85785000Y-112320000I2525000J0D01*
G01*
X80735000Y-105920000D02*
G75*
G02X85785000Y-105920000I2525000J0D01*
G01*
X80735000Y-105920000D02*
X80735000Y-112320000D01*
X85785000Y-105920000D02*
X85785000Y-112320000D01*
X81300000Y-84410000D02*
X85140000Y-84410000D01*
X81300000Y-82570000D02*
X85140000Y-82570000D01*
X112080000Y-110780000D02*
X112080000Y-114620000D01*
X113920000Y-110780000D02*
X113920000Y-114620000D01*
X115080000Y-110780000D02*
X115080000Y-114620000D01*
X116920000Y-110780000D02*
X116920000Y-114620000D01*
X96220000Y-82160000D02*
X94570000Y-82160000D01*
X96220000Y-117840000D02*
X96220000Y-82160000D01*
X90920000Y-117840000D02*
X96220000Y-117840000D01*
X90920000Y-82160000D02*
X90920000Y-117840000D01*
X92570000Y-82160000D02*
X90920000Y-82160000D01*
X94570000Y-82160000D02*
G75*
G02X92570000Y-82160000I-1000000J0D01*
G01*
X107840000Y-107560000D02*
X106190000Y-107560000D01*
X107840000Y-117840000D02*
X107840000Y-107560000D01*
X102540000Y-117840000D02*
X107840000Y-117840000D01*
X102540000Y-107560000D02*
X102540000Y-117840000D01*
X104190000Y-107560000D02*
X102540000Y-107560000D01*
X106190000Y-107560000D02*
G75*
G02X104190000Y-107560000I-1000000J0D01*
G01*
X102650000Y-87180000D02*
X102650000Y-84640000D01*
X105190000Y-87180000D02*
X105190000Y-84640000D01*
X107730000Y-87180000D02*
X107730000Y-84640000D01*
X100070000Y-103070000D02*
X100070000Y-87180000D01*
X110310000Y-103070000D02*
X110310000Y-87180000D01*
X110310000Y-103070000D02*
X100070000Y-103070000D01*
X110310000Y-87180000D02*
X100070000Y-87180000D01*
X80990000Y-94675000D02*
X80990000Y-94660000D01*
X80990000Y-96800000D02*
X80990000Y-96785000D01*
X85530000Y-94675000D02*
X85530000Y-94660000D01*
X85530000Y-96800000D02*
X85530000Y-96785000D01*
X85530000Y-94660000D02*
X80990000Y-94660000D01*
X85530000Y-96800000D02*
X80990000Y-96800000D01*
X95840000Y-121055000D02*
X95840000Y-121070000D01*
X95840000Y-118930000D02*
X95840000Y-118945000D01*
X91300000Y-121055000D02*
X91300000Y-121070000D01*
X91300000Y-118930000D02*
X91300000Y-118945000D01*
X91300000Y-121070000D02*
X95840000Y-121070000D01*
X91300000Y-118930000D02*
X95840000Y-118930000D01*
X80990000Y-100675000D02*
X80990000Y-100660000D01*
X80990000Y-102800000D02*
X80990000Y-102785000D01*
X85530000Y-100675000D02*
X85530000Y-100660000D01*
X85530000Y-102800000D02*
X85530000Y-102785000D01*
X85530000Y-100660000D02*
X80990000Y-100660000D01*
X85530000Y-102800000D02*
X80990000Y-102800000D01*
X80990000Y-115455000D02*
X80990000Y-115440000D01*
X80990000Y-117580000D02*
X80990000Y-117565000D01*
X85530000Y-115455000D02*
X85530000Y-115440000D01*
X85530000Y-117580000D02*
X85530000Y-117565000D01*
X85530000Y-115440000D02*
X80990000Y-115440000D01*
X85530000Y-117580000D02*
X80990000Y-117580000D01*
X107460000Y-121055000D02*
X107460000Y-121070000D01*
X107460000Y-118930000D02*
X107460000Y-118945000D01*
X102920000Y-121055000D02*
X102920000Y-121070000D01*
X102920000Y-118930000D02*
X102920000Y-118945000D01*
X102920000Y-121070000D02*
X107460000Y-121070000D01*
X102920000Y-118930000D02*
X107460000Y-118930000D01*
X115945000Y-88260000D02*
X115930000Y-88260000D01*
X118070000Y-88260000D02*
X118055000Y-88260000D01*
X115945000Y-83720000D02*
X115930000Y-83720000D01*
X118070000Y-83720000D02*
X118055000Y-83720000D01*
X115930000Y-83720000D02*
X115930000Y-88260000D01*
X118070000Y-83720000D02*
X118070000Y-88260000D01*
X74670000Y-92320000D02*
X76000000Y-92320000D01*
X74670000Y-93650000D02*
X74670000Y-92320000D01*
X74670000Y-94920000D02*
X77330000Y-94920000D01*
X77330000Y-94920000D02*
X77330000Y-107680000D01*
X74670000Y-94920000D02*
X74670000Y-107680000D01*
X74670000Y-107680000D02*
X77330000Y-107680000D01*
X127310000Y-110160000D02*
X127310000Y-89840000D01*
X119690000Y-110160000D02*
X119690000Y-89840000D01*
X126040000Y-89840000D02*
X126040000Y-110160000D01*
X127310000Y-89840000D02*
X119690000Y-89840000D01*
X119690000Y-110160000D02*
X127310000Y-110160000D01*
X82510000Y-93008400D02*
X84010000Y-93008400D01*
X86510000Y-91758400D02*
X86510000Y-87258400D01*
X84010000Y-86008400D02*
X82510000Y-86008400D01*
X80010000Y-87258400D02*
X80010000Y-91758400D01*
X95830000Y-77170000D02*
X95830000Y-78500000D01*
X94500000Y-77170000D02*
X95830000Y-77170000D01*
X93230000Y-77170000D02*
X93230000Y-79830000D01*
X93230000Y-79830000D02*
X80470000Y-79830000D01*
X93230000Y-77170000D02*
X80470000Y-77170000D01*
X80470000Y-77170000D02*
X80470000Y-79830000D01*
D12*
X111052025Y-120367695D02*
X110781092Y-119980647D01*
X110587568Y-120367695D02*
X110587568Y-119554895D01*
X110897206Y-119554895D01*
X110974616Y-119593600D01*
X111013320Y-119632304D01*
X111052025Y-119709714D01*
X111052025Y-119825828D01*
X111013320Y-119903238D01*
X110974616Y-119941942D01*
X110897206Y-119980647D01*
X110587568Y-119980647D01*
X111361663Y-119632304D02*
X111400368Y-119593600D01*
X111477778Y-119554895D01*
X111671301Y-119554895D01*
X111748711Y-119593600D01*
X111787416Y-119632304D01*
X111826120Y-119709714D01*
X111826120Y-119787123D01*
X111787416Y-119903238D01*
X111322959Y-120367695D01*
X111826120Y-120367695D01*
X114494971Y-119554895D02*
X114998133Y-119554895D01*
X114727200Y-119864533D01*
X114843314Y-119864533D01*
X114920723Y-119903238D01*
X114959428Y-119941942D01*
X114998133Y-120019352D01*
X114998133Y-120212876D01*
X114959428Y-120290285D01*
X114920723Y-120328990D01*
X114843314Y-120367695D01*
X114611085Y-120367695D01*
X114533676Y-120328990D01*
X114494971Y-120290285D01*
X115269066Y-119554895D02*
X115772228Y-119554895D01*
X115501295Y-119864533D01*
X115617409Y-119864533D01*
X115694819Y-119903238D01*
X115733523Y-119941942D01*
X115772228Y-120019352D01*
X115772228Y-120212876D01*
X115733523Y-120290285D01*
X115694819Y-120328990D01*
X115617409Y-120367695D01*
X115385180Y-120367695D01*
X115307771Y-120328990D01*
X115269066Y-120290285D01*
X116275390Y-119554895D02*
X116352800Y-119554895D01*
X116430209Y-119593600D01*
X116468914Y-119632304D01*
X116507619Y-119709714D01*
X116546323Y-119864533D01*
X116546323Y-120058057D01*
X116507619Y-120212876D01*
X116468914Y-120290285D01*
X116430209Y-120328990D01*
X116352800Y-120367695D01*
X116275390Y-120367695D01*
X116197980Y-120328990D01*
X116159276Y-120290285D01*
X116120571Y-120212876D01*
X116081866Y-120058057D01*
X116081866Y-119864533D01*
X116120571Y-119709714D01*
X116159276Y-119632304D01*
X116197980Y-119593600D01*
X116275390Y-119554895D01*
X112864533Y-104527695D02*
X112593600Y-104140647D01*
X112400076Y-104527695D02*
X112400076Y-103714895D01*
X112709714Y-103714895D01*
X112787123Y-103753600D01*
X112825828Y-103792304D01*
X112864533Y-103869714D01*
X112864533Y-103985828D01*
X112825828Y-104063238D01*
X112787123Y-104101942D01*
X112709714Y-104140647D01*
X112400076Y-104140647D01*
X113638628Y-104527695D02*
X113174171Y-104527695D01*
X113406400Y-104527695D02*
X113406400Y-103714895D01*
X113328990Y-103831009D01*
X113251580Y-103908419D01*
X113174171Y-103947123D01*
X112554895Y-101045028D02*
X112554895Y-100541866D01*
X112864533Y-100812800D01*
X112864533Y-100696685D01*
X112903238Y-100619276D01*
X112941942Y-100580571D01*
X113019352Y-100541866D01*
X113212876Y-100541866D01*
X113290285Y-100580571D01*
X113328990Y-100619276D01*
X113367695Y-100696685D01*
X113367695Y-100928914D01*
X113328990Y-101006323D01*
X113290285Y-101045028D01*
X112554895Y-100270933D02*
X112554895Y-99767771D01*
X112864533Y-100038704D01*
X112864533Y-99922590D01*
X112903238Y-99845180D01*
X112941942Y-99806476D01*
X113019352Y-99767771D01*
X113212876Y-99767771D01*
X113290285Y-99806476D01*
X113328990Y-99845180D01*
X113367695Y-99922590D01*
X113367695Y-100154819D01*
X113328990Y-100232228D01*
X113290285Y-100270933D01*
X112554895Y-99264609D02*
X112554895Y-99187200D01*
X112593600Y-99109790D01*
X112632304Y-99071085D01*
X112709714Y-99032380D01*
X112864533Y-98993676D01*
X113058057Y-98993676D01*
X113212876Y-99032380D01*
X113290285Y-99071085D01*
X113328990Y-99109790D01*
X113367695Y-99187200D01*
X113367695Y-99264609D01*
X113328990Y-99342019D01*
X113290285Y-99380723D01*
X113212876Y-99419428D01*
X113058057Y-99458133D01*
X112864533Y-99458133D01*
X112709714Y-99419428D01*
X112632304Y-99380723D01*
X112593600Y-99342019D01*
X112554895Y-99264609D01*
X126578990Y-115699847D02*
X126617695Y-115583733D01*
X126617695Y-115390209D01*
X126578990Y-115312800D01*
X126540285Y-115274095D01*
X126462876Y-115235390D01*
X126385466Y-115235390D01*
X126308057Y-115274095D01*
X126269352Y-115312800D01*
X126230647Y-115390209D01*
X126191942Y-115545028D01*
X126153238Y-115622438D01*
X126114533Y-115661142D01*
X126037123Y-115699847D01*
X125959714Y-115699847D01*
X125882304Y-115661142D01*
X125843600Y-115622438D01*
X125804895Y-115545028D01*
X125804895Y-115351504D01*
X125843600Y-115235390D01*
X125804895Y-115003161D02*
X125804895Y-114538704D01*
X126617695Y-114770933D02*
X125804895Y-114770933D01*
X126385466Y-114306476D02*
X126385466Y-113919428D01*
X126617695Y-114383885D02*
X125804895Y-114112952D01*
X126617695Y-113842019D01*
X125804895Y-113687200D02*
X125804895Y-113222742D01*
X126617695Y-113454971D02*
X125804895Y-113454971D01*
X126617695Y-86583733D02*
X125804895Y-86583733D01*
X125804895Y-86274095D01*
X125843600Y-86196685D01*
X125882304Y-86157980D01*
X125959714Y-86119276D01*
X126075828Y-86119276D01*
X126153238Y-86157980D01*
X126191942Y-86196685D01*
X126230647Y-86274095D01*
X126230647Y-86583733D01*
X125804895Y-85848342D02*
X126617695Y-85654819D01*
X126037123Y-85500000D01*
X126617695Y-85345180D01*
X125804895Y-85151657D01*
X126617695Y-84377561D02*
X126230647Y-84648495D01*
X126617695Y-84842019D02*
X125804895Y-84842019D01*
X125804895Y-84532380D01*
X125843600Y-84454971D01*
X125882304Y-84416266D01*
X125959714Y-84377561D01*
X126075828Y-84377561D01*
X126153238Y-84416266D01*
X126191942Y-84454971D01*
X126230647Y-84532380D01*
X126230647Y-84842019D01*
X78732025Y-99020285D02*
X78693320Y-99058990D01*
X78577206Y-99097695D01*
X78499797Y-99097695D01*
X78383682Y-99058990D01*
X78306273Y-98981580D01*
X78267568Y-98904171D01*
X78228863Y-98749352D01*
X78228863Y-98633238D01*
X78267568Y-98478419D01*
X78306273Y-98401009D01*
X78383682Y-98323600D01*
X78499797Y-98284895D01*
X78577206Y-98284895D01*
X78693320Y-98323600D01*
X78732025Y-98362304D01*
X79428711Y-98555828D02*
X79428711Y-99097695D01*
X79235187Y-98246190D02*
X79041663Y-98826761D01*
X79544825Y-98826761D01*
X82389142Y-99097695D02*
X81924685Y-99097695D01*
X82156914Y-99097695D02*
X82156914Y-98284895D01*
X82079504Y-98401009D01*
X82002095Y-98478419D01*
X81924685Y-98517123D01*
X82892304Y-98284895D02*
X82969714Y-98284895D01*
X83047123Y-98323600D01*
X83085828Y-98362304D01*
X83124533Y-98439714D01*
X83163238Y-98594533D01*
X83163238Y-98788057D01*
X83124533Y-98942876D01*
X83085828Y-99020285D01*
X83047123Y-99058990D01*
X82969714Y-99097695D01*
X82892304Y-99097695D01*
X82814895Y-99058990D01*
X82776190Y-99020285D01*
X82737485Y-98942876D01*
X82698780Y-98788057D01*
X82698780Y-98594533D01*
X82737485Y-98439714D01*
X82776190Y-98362304D01*
X82814895Y-98323600D01*
X82892304Y-98284895D01*
X83859923Y-98555828D02*
X83859923Y-99097695D01*
X83511580Y-98555828D02*
X83511580Y-98981580D01*
X83550285Y-99058990D01*
X83627695Y-99097695D01*
X83743809Y-99097695D01*
X83821219Y-99058990D01*
X83859923Y-99020285D01*
X84517904Y-98671942D02*
X84246971Y-98671942D01*
X84246971Y-99097695D02*
X84246971Y-98284895D01*
X84634019Y-98284895D01*
X112400076Y-93767695D02*
X112400076Y-92954895D01*
X112593600Y-92954895D01*
X112709714Y-92993600D01*
X112787123Y-93071009D01*
X112825828Y-93148419D01*
X112864533Y-93303238D01*
X112864533Y-93419352D01*
X112825828Y-93574171D01*
X112787123Y-93651580D01*
X112709714Y-93728990D01*
X112593600Y-93767695D01*
X112400076Y-93767695D01*
X113174171Y-93032304D02*
X113212876Y-92993600D01*
X113290285Y-92954895D01*
X113483809Y-92954895D01*
X113561219Y-92993600D01*
X113599923Y-93032304D01*
X113638628Y-93109714D01*
X113638628Y-93187123D01*
X113599923Y-93303238D01*
X113135466Y-93767695D01*
X113638628Y-93767695D01*
X112592895Y-88699219D02*
X112592895Y-89086266D01*
X112979942Y-89124971D01*
X112941238Y-89086266D01*
X112902533Y-89008857D01*
X112902533Y-88815333D01*
X112941238Y-88737923D01*
X112979942Y-88699219D01*
X113057352Y-88660514D01*
X113250876Y-88660514D01*
X113328285Y-88699219D01*
X113366990Y-88737923D01*
X113405695Y-88815333D01*
X113405695Y-89008857D01*
X113366990Y-89086266D01*
X113328285Y-89124971D01*
X112941238Y-88196057D02*
X112902533Y-88273466D01*
X112863828Y-88312171D01*
X112786419Y-88350876D01*
X112747714Y-88350876D01*
X112670304Y-88312171D01*
X112631600Y-88273466D01*
X112592895Y-88196057D01*
X112592895Y-88041238D01*
X112631600Y-87963828D01*
X112670304Y-87925123D01*
X112747714Y-87886419D01*
X112786419Y-87886419D01*
X112863828Y-87925123D01*
X112902533Y-87963828D01*
X112941238Y-88041238D01*
X112941238Y-88196057D01*
X112979942Y-88273466D01*
X113018647Y-88312171D01*
X113096057Y-88350876D01*
X113250876Y-88350876D01*
X113328285Y-88312171D01*
X113366990Y-88273466D01*
X113405695Y-88196057D01*
X113405695Y-88041238D01*
X113366990Y-87963828D01*
X113328285Y-87925123D01*
X113250876Y-87886419D01*
X113096057Y-87886419D01*
X113018647Y-87925123D01*
X112979942Y-87963828D01*
X112941238Y-88041238D01*
X113405695Y-87112323D02*
X113405695Y-87576780D01*
X113405695Y-87344552D02*
X112592895Y-87344552D01*
X112709009Y-87421961D01*
X112786419Y-87499371D01*
X112825123Y-87576780D01*
X113405695Y-86725276D02*
X113405695Y-86570457D01*
X113366990Y-86493047D01*
X113328285Y-86454342D01*
X113212171Y-86376933D01*
X113057352Y-86338228D01*
X112747714Y-86338228D01*
X112670304Y-86376933D01*
X112631600Y-86415638D01*
X112592895Y-86493047D01*
X112592895Y-86647866D01*
X112631600Y-86725276D01*
X112670304Y-86763980D01*
X112747714Y-86802685D01*
X112941238Y-86802685D01*
X113018647Y-86763980D01*
X113057352Y-86725276D01*
X113096057Y-86647866D01*
X113096057Y-86493047D01*
X113057352Y-86415638D01*
X113018647Y-86376933D01*
X112941238Y-86338228D01*
X100662025Y-105790285D02*
X100623320Y-105828990D01*
X100507206Y-105867695D01*
X100429797Y-105867695D01*
X100313682Y-105828990D01*
X100236273Y-105751580D01*
X100197568Y-105674171D01*
X100158863Y-105519352D01*
X100158863Y-105403238D01*
X100197568Y-105248419D01*
X100236273Y-105171009D01*
X100313682Y-105093600D01*
X100429797Y-105054895D01*
X100507206Y-105054895D01*
X100623320Y-105093600D01*
X100662025Y-105132304D01*
X100971663Y-105132304D02*
X101010368Y-105093600D01*
X101087778Y-105054895D01*
X101281301Y-105054895D01*
X101358711Y-105093600D01*
X101397416Y-105132304D01*
X101436120Y-105209714D01*
X101436120Y-105287123D01*
X101397416Y-105403238D01*
X100932959Y-105867695D01*
X101436120Y-105867695D01*
X104319142Y-105867695D02*
X103854685Y-105867695D01*
X104086914Y-105867695D02*
X104086914Y-105054895D01*
X104009504Y-105171009D01*
X103932095Y-105248419D01*
X103854685Y-105287123D01*
X104822304Y-105054895D02*
X104899714Y-105054895D01*
X104977123Y-105093600D01*
X105015828Y-105132304D01*
X105054533Y-105209714D01*
X105093238Y-105364533D01*
X105093238Y-105558057D01*
X105054533Y-105712876D01*
X105015828Y-105790285D01*
X104977123Y-105828990D01*
X104899714Y-105867695D01*
X104822304Y-105867695D01*
X104744895Y-105828990D01*
X104706190Y-105790285D01*
X104667485Y-105712876D01*
X104628780Y-105558057D01*
X104628780Y-105364533D01*
X104667485Y-105209714D01*
X104706190Y-105132304D01*
X104744895Y-105093600D01*
X104822304Y-105054895D01*
X105789923Y-105325828D02*
X105789923Y-105867695D01*
X105441580Y-105325828D02*
X105441580Y-105751580D01*
X105480285Y-105828990D01*
X105557695Y-105867695D01*
X105673809Y-105867695D01*
X105751219Y-105828990D01*
X105789923Y-105790285D01*
X106447904Y-105441942D02*
X106176971Y-105441942D01*
X106176971Y-105867695D02*
X106176971Y-105054895D01*
X106564019Y-105054895D01*
X79112952Y-109100647D02*
X79112952Y-109487695D01*
X78842019Y-108674895D02*
X79112952Y-109100647D01*
X79383885Y-108674895D01*
X80080571Y-109487695D02*
X79616114Y-109487695D01*
X79848342Y-109487695D02*
X79848342Y-108674895D01*
X79770933Y-108791009D01*
X79693523Y-108868419D01*
X79616114Y-108907123D01*
X81421523Y-108752304D02*
X81460228Y-108713600D01*
X81537638Y-108674895D01*
X81731161Y-108674895D01*
X81808571Y-108713600D01*
X81847276Y-108752304D01*
X81885980Y-108829714D01*
X81885980Y-108907123D01*
X81847276Y-109023238D01*
X81382819Y-109487695D01*
X81885980Y-109487695D01*
X82389142Y-108674895D02*
X82466552Y-108674895D01*
X82543961Y-108713600D01*
X82582666Y-108752304D01*
X82621371Y-108829714D01*
X82660076Y-108984533D01*
X82660076Y-109178057D01*
X82621371Y-109332876D01*
X82582666Y-109410285D01*
X82543961Y-109448990D01*
X82466552Y-109487695D01*
X82389142Y-109487695D01*
X82311733Y-109448990D01*
X82273028Y-109410285D01*
X82234323Y-109332876D01*
X82195619Y-109178057D01*
X82195619Y-108984533D01*
X82234323Y-108829714D01*
X82273028Y-108752304D01*
X82311733Y-108713600D01*
X82389142Y-108674895D01*
X83008419Y-109487695D02*
X83008419Y-108674895D01*
X83279352Y-109255466D01*
X83550285Y-108674895D01*
X83550285Y-109487695D01*
X83937333Y-109487695D02*
X83937333Y-108674895D01*
X83937333Y-109061942D02*
X84401790Y-109061942D01*
X84401790Y-109487695D02*
X84401790Y-108674895D01*
X84711428Y-108945828D02*
X85137180Y-108945828D01*
X84711428Y-109487695D01*
X85137180Y-109487695D01*
X78732025Y-83857695D02*
X78461092Y-83470647D01*
X78267568Y-83857695D02*
X78267568Y-83044895D01*
X78577206Y-83044895D01*
X78654616Y-83083600D01*
X78693320Y-83122304D01*
X78732025Y-83199714D01*
X78732025Y-83315828D01*
X78693320Y-83393238D01*
X78654616Y-83431942D01*
X78577206Y-83470647D01*
X78267568Y-83470647D01*
X79467416Y-83044895D02*
X79080368Y-83044895D01*
X79041663Y-83431942D01*
X79080368Y-83393238D01*
X79157778Y-83354533D01*
X79351301Y-83354533D01*
X79428711Y-83393238D01*
X79467416Y-83431942D01*
X79506120Y-83509352D01*
X79506120Y-83702876D01*
X79467416Y-83780285D01*
X79428711Y-83818990D01*
X79351301Y-83857695D01*
X79157778Y-83857695D01*
X79080368Y-83818990D01*
X79041663Y-83780285D01*
X82698780Y-83857695D02*
X82234323Y-83857695D01*
X82466552Y-83857695D02*
X82466552Y-83044895D01*
X82389142Y-83161009D01*
X82311733Y-83238419D01*
X82234323Y-83277123D01*
X83201942Y-83044895D02*
X83279352Y-83044895D01*
X83356761Y-83083600D01*
X83395466Y-83122304D01*
X83434171Y-83199714D01*
X83472876Y-83354533D01*
X83472876Y-83548057D01*
X83434171Y-83702876D01*
X83395466Y-83780285D01*
X83356761Y-83818990D01*
X83279352Y-83857695D01*
X83201942Y-83857695D01*
X83124533Y-83818990D01*
X83085828Y-83780285D01*
X83047123Y-83702876D01*
X83008419Y-83548057D01*
X83008419Y-83354533D01*
X83047123Y-83199714D01*
X83085828Y-83122304D01*
X83124533Y-83083600D01*
X83201942Y-83044895D01*
X83821219Y-83857695D02*
X83821219Y-83044895D01*
X84285676Y-83857695D02*
X83937333Y-83393238D01*
X84285676Y-83044895D02*
X83821219Y-83509352D01*
X112864533Y-117227695D02*
X112593600Y-116840647D01*
X112400076Y-117227695D02*
X112400076Y-116414895D01*
X112709714Y-116414895D01*
X112787123Y-116453600D01*
X112825828Y-116492304D01*
X112864533Y-116569714D01*
X112864533Y-116685828D01*
X112825828Y-116763238D01*
X112787123Y-116801942D01*
X112709714Y-116840647D01*
X112400076Y-116840647D01*
X113561219Y-116685828D02*
X113561219Y-117227695D01*
X113367695Y-116376190D02*
X113174171Y-116956761D01*
X113677333Y-116956761D01*
X113367695Y-113261219D02*
X113367695Y-113725676D01*
X113367695Y-113493447D02*
X112554895Y-113493447D01*
X112671009Y-113570857D01*
X112748419Y-113648266D01*
X112787123Y-113725676D01*
X112554895Y-112758057D02*
X112554895Y-112680647D01*
X112593600Y-112603238D01*
X112632304Y-112564533D01*
X112709714Y-112525828D01*
X112864533Y-112487123D01*
X113058057Y-112487123D01*
X113212876Y-112525828D01*
X113290285Y-112564533D01*
X113328990Y-112603238D01*
X113367695Y-112680647D01*
X113367695Y-112758057D01*
X113328990Y-112835466D01*
X113290285Y-112874171D01*
X113212876Y-112912876D01*
X113058057Y-112951580D01*
X112864533Y-112951580D01*
X112709714Y-112912876D01*
X112632304Y-112874171D01*
X112593600Y-112835466D01*
X112554895Y-112758057D01*
X113367695Y-112138780D02*
X112554895Y-112138780D01*
X113367695Y-111674323D02*
X112903238Y-112022666D01*
X112554895Y-111674323D02*
X113019352Y-112138780D01*
X115864533Y-117227695D02*
X115593600Y-116840647D01*
X115400076Y-117227695D02*
X115400076Y-116414895D01*
X115709714Y-116414895D01*
X115787123Y-116453600D01*
X115825828Y-116492304D01*
X115864533Y-116569714D01*
X115864533Y-116685828D01*
X115825828Y-116763238D01*
X115787123Y-116801942D01*
X115709714Y-116840647D01*
X115400076Y-116840647D01*
X116135466Y-116414895D02*
X116638628Y-116414895D01*
X116367695Y-116724533D01*
X116483809Y-116724533D01*
X116561219Y-116763238D01*
X116599923Y-116801942D01*
X116638628Y-116879352D01*
X116638628Y-117072876D01*
X116599923Y-117150285D01*
X116561219Y-117188990D01*
X116483809Y-117227695D01*
X116251580Y-117227695D01*
X116174171Y-117188990D01*
X116135466Y-117150285D01*
X116367695Y-113241866D02*
X116367695Y-113706323D01*
X116367695Y-113474095D02*
X115554895Y-113474095D01*
X115671009Y-113551504D01*
X115748419Y-113628914D01*
X115787123Y-113706323D01*
X115632304Y-112932228D02*
X115593600Y-112893523D01*
X115554895Y-112816114D01*
X115554895Y-112622590D01*
X115593600Y-112545180D01*
X115632304Y-112506476D01*
X115709714Y-112467771D01*
X115787123Y-112467771D01*
X115903238Y-112506476D01*
X116367695Y-112970933D01*
X116367695Y-112467771D01*
X115554895Y-111964609D02*
X115554895Y-111887200D01*
X115593600Y-111809790D01*
X115632304Y-111771085D01*
X115709714Y-111732380D01*
X115864533Y-111693676D01*
X116058057Y-111693676D01*
X116212876Y-111732380D01*
X116290285Y-111771085D01*
X116328990Y-111809790D01*
X116367695Y-111887200D01*
X116367695Y-111964609D01*
X116328990Y-112042019D01*
X116290285Y-112080723D01*
X116212876Y-112119428D01*
X116058057Y-112158133D01*
X115864533Y-112158133D01*
X115709714Y-112119428D01*
X115632304Y-112080723D01*
X115593600Y-112042019D01*
X115554895Y-111964609D01*
X92950723Y-81054895D02*
X92950723Y-81712876D01*
X92989428Y-81790285D01*
X93028133Y-81828990D01*
X93105542Y-81867695D01*
X93260361Y-81867695D01*
X93337771Y-81828990D01*
X93376476Y-81790285D01*
X93415180Y-81712876D01*
X93415180Y-81054895D01*
X93724819Y-81054895D02*
X94227980Y-81054895D01*
X93957047Y-81364533D01*
X94073161Y-81364533D01*
X94150571Y-81403238D01*
X94189276Y-81441942D01*
X94227980Y-81519352D01*
X94227980Y-81712876D01*
X94189276Y-81790285D01*
X94150571Y-81828990D01*
X94073161Y-81867695D01*
X93840933Y-81867695D01*
X93763523Y-81828990D01*
X93724819Y-81790285D01*
X93937695Y-103889828D02*
X93124895Y-103889828D01*
X93124895Y-103580190D01*
X93163600Y-103502780D01*
X93202304Y-103464076D01*
X93279714Y-103425371D01*
X93395828Y-103425371D01*
X93473238Y-103464076D01*
X93511942Y-103502780D01*
X93550647Y-103580190D01*
X93550647Y-103889828D01*
X93937695Y-103077028D02*
X93124895Y-103077028D01*
X93860285Y-102225523D02*
X93898990Y-102264228D01*
X93937695Y-102380342D01*
X93937695Y-102457752D01*
X93898990Y-102573866D01*
X93821580Y-102651276D01*
X93744171Y-102689980D01*
X93589352Y-102728685D01*
X93473238Y-102728685D01*
X93318419Y-102689980D01*
X93241009Y-102651276D01*
X93163600Y-102573866D01*
X93124895Y-102457752D01*
X93124895Y-102380342D01*
X93163600Y-102264228D01*
X93202304Y-102225523D01*
X93937695Y-101451428D02*
X93937695Y-101915885D01*
X93937695Y-101683657D02*
X93124895Y-101683657D01*
X93241009Y-101761066D01*
X93318419Y-101838476D01*
X93357123Y-101915885D01*
X93473238Y-100986971D02*
X93434533Y-101064380D01*
X93395828Y-101103085D01*
X93318419Y-101141790D01*
X93279714Y-101141790D01*
X93202304Y-101103085D01*
X93163600Y-101064380D01*
X93124895Y-100986971D01*
X93124895Y-100832152D01*
X93163600Y-100754742D01*
X93202304Y-100716038D01*
X93279714Y-100677333D01*
X93318419Y-100677333D01*
X93395828Y-100716038D01*
X93434533Y-100754742D01*
X93473238Y-100832152D01*
X93473238Y-100986971D01*
X93511942Y-101064380D01*
X93550647Y-101103085D01*
X93628057Y-101141790D01*
X93782876Y-101141790D01*
X93860285Y-101103085D01*
X93898990Y-101064380D01*
X93937695Y-100986971D01*
X93937695Y-100832152D01*
X93898990Y-100754742D01*
X93860285Y-100716038D01*
X93782876Y-100677333D01*
X93628057Y-100677333D01*
X93550647Y-100716038D01*
X93511942Y-100754742D01*
X93473238Y-100832152D01*
X93511942Y-100058057D02*
X93511942Y-100328990D01*
X93937695Y-100328990D02*
X93124895Y-100328990D01*
X93124895Y-99941942D01*
X93202304Y-99671009D02*
X93163600Y-99632304D01*
X93124895Y-99554895D01*
X93124895Y-99361371D01*
X93163600Y-99283961D01*
X93202304Y-99245257D01*
X93279714Y-99206552D01*
X93357123Y-99206552D01*
X93473238Y-99245257D01*
X93937695Y-99709714D01*
X93937695Y-99206552D01*
X93124895Y-98471161D02*
X93124895Y-98858209D01*
X93511942Y-98896914D01*
X93473238Y-98858209D01*
X93434533Y-98780800D01*
X93434533Y-98587276D01*
X93473238Y-98509866D01*
X93511942Y-98471161D01*
X93589352Y-98432457D01*
X93782876Y-98432457D01*
X93860285Y-98471161D01*
X93898990Y-98509866D01*
X93937695Y-98587276D01*
X93937695Y-98780800D01*
X93898990Y-98858209D01*
X93860285Y-98896914D01*
X93937695Y-98084114D02*
X93124895Y-98084114D01*
X93937695Y-97619657D02*
X93473238Y-97968000D01*
X93124895Y-97619657D02*
X93589352Y-98084114D01*
X93473238Y-97155200D02*
X93434533Y-97232609D01*
X93395828Y-97271314D01*
X93318419Y-97310019D01*
X93279714Y-97310019D01*
X93202304Y-97271314D01*
X93163600Y-97232609D01*
X93124895Y-97155200D01*
X93124895Y-97000380D01*
X93163600Y-96922971D01*
X93202304Y-96884266D01*
X93279714Y-96845561D01*
X93318419Y-96845561D01*
X93395828Y-96884266D01*
X93434533Y-96922971D01*
X93473238Y-97000380D01*
X93473238Y-97155200D01*
X93511942Y-97232609D01*
X93550647Y-97271314D01*
X93628057Y-97310019D01*
X93782876Y-97310019D01*
X93860285Y-97271314D01*
X93898990Y-97232609D01*
X93937695Y-97155200D01*
X93937695Y-97000380D01*
X93898990Y-96922971D01*
X93860285Y-96884266D01*
X93782876Y-96845561D01*
X93628057Y-96845561D01*
X93550647Y-96884266D01*
X93511942Y-96922971D01*
X93473238Y-97000380D01*
X93124895Y-96342400D02*
X93124895Y-96264990D01*
X93163600Y-96187580D01*
X93202304Y-96148876D01*
X93279714Y-96110171D01*
X93434533Y-96071466D01*
X93628057Y-96071466D01*
X93782876Y-96110171D01*
X93860285Y-96148876D01*
X93898990Y-96187580D01*
X93937695Y-96264990D01*
X93937695Y-96342400D01*
X93898990Y-96419809D01*
X93860285Y-96458514D01*
X93782876Y-96497219D01*
X93628057Y-96535923D01*
X93434533Y-96535923D01*
X93279714Y-96497219D01*
X93202304Y-96458514D01*
X93163600Y-96419809D01*
X93124895Y-96342400D01*
X110292583Y-108444895D02*
X110292583Y-109102876D01*
X110331288Y-109180285D01*
X110369993Y-109218990D01*
X110447402Y-109257695D01*
X110602221Y-109257695D01*
X110679631Y-109218990D01*
X110718336Y-109180285D01*
X110757040Y-109102876D01*
X110757040Y-108444895D01*
X111105383Y-108522304D02*
X111144088Y-108483600D01*
X111221498Y-108444895D01*
X111415021Y-108444895D01*
X111492431Y-108483600D01*
X111531136Y-108522304D01*
X111569840Y-108599714D01*
X111569840Y-108677123D01*
X111531136Y-108793238D01*
X111066679Y-109257695D01*
X111569840Y-109257695D01*
X105625295Y-115357123D02*
X104812495Y-115357123D01*
X105393066Y-115086190D01*
X104812495Y-114815257D01*
X105625295Y-114815257D01*
X105547885Y-113963752D02*
X105586590Y-114002457D01*
X105625295Y-114118571D01*
X105625295Y-114195980D01*
X105586590Y-114312095D01*
X105509180Y-114389504D01*
X105431771Y-114428209D01*
X105276952Y-114466914D01*
X105160838Y-114466914D01*
X105006019Y-114428209D01*
X104928609Y-114389504D01*
X104851200Y-114312095D01*
X104812495Y-114195980D01*
X104812495Y-114118571D01*
X104851200Y-114002457D01*
X104889904Y-113963752D01*
X105625295Y-113615409D02*
X104812495Y-113615409D01*
X104812495Y-113305771D01*
X104851200Y-113228361D01*
X104889904Y-113189657D01*
X104967314Y-113150952D01*
X105083428Y-113150952D01*
X105160838Y-113189657D01*
X105199542Y-113228361D01*
X105238247Y-113305771D01*
X105238247Y-113615409D01*
X104889904Y-112841314D02*
X104851200Y-112802609D01*
X104812495Y-112725200D01*
X104812495Y-112531676D01*
X104851200Y-112454266D01*
X104889904Y-112415561D01*
X104967314Y-112376857D01*
X105044723Y-112376857D01*
X105160838Y-112415561D01*
X105625295Y-112880019D01*
X105625295Y-112376857D01*
X104812495Y-111641466D02*
X104812495Y-112028514D01*
X105199542Y-112067219D01*
X105160838Y-112028514D01*
X105122133Y-111951104D01*
X105122133Y-111757580D01*
X105160838Y-111680171D01*
X105199542Y-111641466D01*
X105276952Y-111602761D01*
X105470476Y-111602761D01*
X105547885Y-111641466D01*
X105586590Y-111680171D01*
X105625295Y-111757580D01*
X105625295Y-111951104D01*
X105586590Y-112028514D01*
X105547885Y-112067219D01*
X104812495Y-110867371D02*
X104812495Y-111254419D01*
X105199542Y-111293123D01*
X105160838Y-111254419D01*
X105122133Y-111177009D01*
X105122133Y-110983485D01*
X105160838Y-110906076D01*
X105199542Y-110867371D01*
X105276952Y-110828666D01*
X105470476Y-110828666D01*
X105547885Y-110867371D01*
X105586590Y-110906076D01*
X105625295Y-110983485D01*
X105625295Y-111177009D01*
X105586590Y-111254419D01*
X105547885Y-111293123D01*
X105625295Y-110054571D02*
X105625295Y-110519028D01*
X105625295Y-110286800D02*
X104812495Y-110286800D01*
X104928609Y-110364209D01*
X105006019Y-110441619D01*
X105044723Y-110519028D01*
X99968863Y-83019295D02*
X99968863Y-83677276D01*
X100007568Y-83754685D01*
X100046273Y-83793390D01*
X100123682Y-83832095D01*
X100278501Y-83832095D01*
X100355911Y-83793390D01*
X100394616Y-83754685D01*
X100433320Y-83677276D01*
X100433320Y-83019295D01*
X101246120Y-83832095D02*
X100781663Y-83832095D01*
X101013892Y-83832095D02*
X101013892Y-83019295D01*
X100936482Y-83135409D01*
X100859073Y-83212819D01*
X100781663Y-83251523D01*
X103428933Y-94347695D02*
X103041885Y-94347695D01*
X103041885Y-93534895D01*
X103699866Y-94347695D02*
X103699866Y-93534895D01*
X103970800Y-94115466D01*
X104241733Y-93534895D01*
X104241733Y-94347695D01*
X104551371Y-93534895D02*
X105093238Y-93534895D01*
X104744895Y-94347695D01*
X105518990Y-93883238D02*
X105441580Y-93844533D01*
X105402876Y-93805828D01*
X105364171Y-93728419D01*
X105364171Y-93689714D01*
X105402876Y-93612304D01*
X105441580Y-93573600D01*
X105518990Y-93534895D01*
X105673809Y-93534895D01*
X105751219Y-93573600D01*
X105789923Y-93612304D01*
X105828628Y-93689714D01*
X105828628Y-93728419D01*
X105789923Y-93805828D01*
X105751219Y-93844533D01*
X105673809Y-93883238D01*
X105518990Y-93883238D01*
X105441580Y-93921942D01*
X105402876Y-93960647D01*
X105364171Y-94038057D01*
X105364171Y-94192876D01*
X105402876Y-94270285D01*
X105441580Y-94308990D01*
X105518990Y-94347695D01*
X105673809Y-94347695D01*
X105751219Y-94308990D01*
X105789923Y-94270285D01*
X105828628Y-94192876D01*
X105828628Y-94038057D01*
X105789923Y-93960647D01*
X105751219Y-93921942D01*
X105673809Y-93883238D01*
X106331790Y-93534895D02*
X106409200Y-93534895D01*
X106486609Y-93573600D01*
X106525314Y-93612304D01*
X106564019Y-93689714D01*
X106602723Y-93844533D01*
X106602723Y-94038057D01*
X106564019Y-94192876D01*
X106525314Y-94270285D01*
X106486609Y-94308990D01*
X106409200Y-94347695D01*
X106331790Y-94347695D01*
X106254380Y-94308990D01*
X106215676Y-94270285D01*
X106176971Y-94192876D01*
X106138266Y-94038057D01*
X106138266Y-93844533D01*
X106176971Y-93689714D01*
X106215676Y-93612304D01*
X106254380Y-93573600D01*
X106331790Y-93534895D01*
X107338114Y-93534895D02*
X106951066Y-93534895D01*
X106912361Y-93921942D01*
X106951066Y-93883238D01*
X107028476Y-93844533D01*
X107222000Y-93844533D01*
X107299409Y-93883238D01*
X107338114Y-93921942D01*
X107376819Y-93999352D01*
X107376819Y-94192876D01*
X107338114Y-94270285D01*
X107299409Y-94308990D01*
X107222000Y-94347695D01*
X107028476Y-94347695D01*
X106951066Y-94308990D01*
X106912361Y-94270285D01*
X78732025Y-96020285D02*
X78693320Y-96058990D01*
X78577206Y-96097695D01*
X78499797Y-96097695D01*
X78383682Y-96058990D01*
X78306273Y-95981580D01*
X78267568Y-95904171D01*
X78228863Y-95749352D01*
X78228863Y-95633238D01*
X78267568Y-95478419D01*
X78306273Y-95401009D01*
X78383682Y-95323600D01*
X78499797Y-95284895D01*
X78577206Y-95284895D01*
X78693320Y-95323600D01*
X78732025Y-95362304D01*
X79196482Y-95633238D02*
X79119073Y-95594533D01*
X79080368Y-95555828D01*
X79041663Y-95478419D01*
X79041663Y-95439714D01*
X79080368Y-95362304D01*
X79119073Y-95323600D01*
X79196482Y-95284895D01*
X79351301Y-95284895D01*
X79428711Y-95323600D01*
X79467416Y-95362304D01*
X79506120Y-95439714D01*
X79506120Y-95478419D01*
X79467416Y-95555828D01*
X79428711Y-95594533D01*
X79351301Y-95633238D01*
X79196482Y-95633238D01*
X79119073Y-95671942D01*
X79080368Y-95710647D01*
X79041663Y-95788057D01*
X79041663Y-95942876D01*
X79080368Y-96020285D01*
X79119073Y-96058990D01*
X79196482Y-96097695D01*
X79351301Y-96097695D01*
X79428711Y-96058990D01*
X79467416Y-96020285D01*
X79506120Y-95942876D01*
X79506120Y-95788057D01*
X79467416Y-95710647D01*
X79428711Y-95671942D01*
X79351301Y-95633238D01*
X81924685Y-95284895D02*
X82002095Y-95284895D01*
X82079504Y-95323600D01*
X82118209Y-95362304D01*
X82156914Y-95439714D01*
X82195619Y-95594533D01*
X82195619Y-95788057D01*
X82156914Y-95942876D01*
X82118209Y-96020285D01*
X82079504Y-96058990D01*
X82002095Y-96097695D01*
X81924685Y-96097695D01*
X81847276Y-96058990D01*
X81808571Y-96020285D01*
X81769866Y-95942876D01*
X81731161Y-95788057D01*
X81731161Y-95594533D01*
X81769866Y-95439714D01*
X81808571Y-95362304D01*
X81847276Y-95323600D01*
X81924685Y-95284895D01*
X82543961Y-96020285D02*
X82582666Y-96058990D01*
X82543961Y-96097695D01*
X82505257Y-96058990D01*
X82543961Y-96020285D01*
X82543961Y-96097695D01*
X83356761Y-96097695D02*
X82892304Y-96097695D01*
X83124533Y-96097695D02*
X83124533Y-95284895D01*
X83047123Y-95401009D01*
X82969714Y-95478419D01*
X82892304Y-95517123D01*
X84053447Y-95555828D02*
X84053447Y-96097695D01*
X83705104Y-95555828D02*
X83705104Y-95981580D01*
X83743809Y-96058990D01*
X83821219Y-96097695D01*
X83937333Y-96097695D01*
X84014742Y-96058990D01*
X84053447Y-96020285D01*
X84711428Y-95671942D02*
X84440495Y-95671942D01*
X84440495Y-96097695D02*
X84440495Y-95284895D01*
X84827542Y-95284895D01*
X97827040Y-120290285D02*
X97788336Y-120328990D01*
X97672221Y-120367695D01*
X97594812Y-120367695D01*
X97478698Y-120328990D01*
X97401288Y-120251580D01*
X97362583Y-120174171D01*
X97323879Y-120019352D01*
X97323879Y-119903238D01*
X97362583Y-119748419D01*
X97401288Y-119671009D01*
X97478698Y-119593600D01*
X97594812Y-119554895D01*
X97672221Y-119554895D01*
X97788336Y-119593600D01*
X97827040Y-119632304D01*
X98562431Y-119554895D02*
X98175383Y-119554895D01*
X98136679Y-119941942D01*
X98175383Y-119903238D01*
X98252793Y-119864533D01*
X98446317Y-119864533D01*
X98523726Y-119903238D01*
X98562431Y-119941942D01*
X98601136Y-120019352D01*
X98601136Y-120212876D01*
X98562431Y-120290285D01*
X98523726Y-120328990D01*
X98446317Y-120367695D01*
X98252793Y-120367695D01*
X98175383Y-120328990D01*
X98136679Y-120290285D01*
X92234685Y-119554895D02*
X92312095Y-119554895D01*
X92389504Y-119593600D01*
X92428209Y-119632304D01*
X92466914Y-119709714D01*
X92505619Y-119864533D01*
X92505619Y-120058057D01*
X92466914Y-120212876D01*
X92428209Y-120290285D01*
X92389504Y-120328990D01*
X92312095Y-120367695D01*
X92234685Y-120367695D01*
X92157276Y-120328990D01*
X92118571Y-120290285D01*
X92079866Y-120212876D01*
X92041161Y-120058057D01*
X92041161Y-119864533D01*
X92079866Y-119709714D01*
X92118571Y-119632304D01*
X92157276Y-119593600D01*
X92234685Y-119554895D01*
X92853961Y-120290285D02*
X92892666Y-120328990D01*
X92853961Y-120367695D01*
X92815257Y-120328990D01*
X92853961Y-120290285D01*
X92853961Y-120367695D01*
X93666761Y-120367695D02*
X93202304Y-120367695D01*
X93434533Y-120367695D02*
X93434533Y-119554895D01*
X93357123Y-119671009D01*
X93279714Y-119748419D01*
X93202304Y-119787123D01*
X94363447Y-119825828D02*
X94363447Y-120367695D01*
X94015104Y-119825828D02*
X94015104Y-120251580D01*
X94053809Y-120328990D01*
X94131219Y-120367695D01*
X94247333Y-120367695D01*
X94324742Y-120328990D01*
X94363447Y-120290285D01*
X95021428Y-119941942D02*
X94750495Y-119941942D01*
X94750495Y-120367695D02*
X94750495Y-119554895D01*
X95137542Y-119554895D01*
X78732025Y-102020285D02*
X78693320Y-102058990D01*
X78577206Y-102097695D01*
X78499797Y-102097695D01*
X78383682Y-102058990D01*
X78306273Y-101981580D01*
X78267568Y-101904171D01*
X78228863Y-101749352D01*
X78228863Y-101633238D01*
X78267568Y-101478419D01*
X78306273Y-101401009D01*
X78383682Y-101323600D01*
X78499797Y-101284895D01*
X78577206Y-101284895D01*
X78693320Y-101323600D01*
X78732025Y-101362304D01*
X79002959Y-101284895D02*
X79544825Y-101284895D01*
X79196482Y-102097695D01*
X81924685Y-101362304D02*
X81963390Y-101323600D01*
X82040800Y-101284895D01*
X82234323Y-101284895D01*
X82311733Y-101323600D01*
X82350438Y-101362304D01*
X82389142Y-101439714D01*
X82389142Y-101517123D01*
X82350438Y-101633238D01*
X81885980Y-102097695D01*
X82389142Y-102097695D01*
X82698780Y-101362304D02*
X82737485Y-101323600D01*
X82814895Y-101284895D01*
X83008419Y-101284895D01*
X83085828Y-101323600D01*
X83124533Y-101362304D01*
X83163238Y-101439714D01*
X83163238Y-101517123D01*
X83124533Y-101633238D01*
X82660076Y-102097695D01*
X83163238Y-102097695D01*
X83511580Y-101555828D02*
X83511580Y-102368628D01*
X83511580Y-101594533D02*
X83588990Y-101555828D01*
X83743809Y-101555828D01*
X83821219Y-101594533D01*
X83859923Y-101633238D01*
X83898628Y-101710647D01*
X83898628Y-101942876D01*
X83859923Y-102020285D01*
X83821219Y-102058990D01*
X83743809Y-102097695D01*
X83588990Y-102097695D01*
X83511580Y-102058990D01*
X84517904Y-101671942D02*
X84246971Y-101671942D01*
X84246971Y-102097695D02*
X84246971Y-101284895D01*
X84634019Y-101284895D01*
X78732025Y-116800285D02*
X78693320Y-116838990D01*
X78577206Y-116877695D01*
X78499797Y-116877695D01*
X78383682Y-116838990D01*
X78306273Y-116761580D01*
X78267568Y-116684171D01*
X78228863Y-116529352D01*
X78228863Y-116413238D01*
X78267568Y-116258419D01*
X78306273Y-116181009D01*
X78383682Y-116103600D01*
X78499797Y-116064895D01*
X78577206Y-116064895D01*
X78693320Y-116103600D01*
X78732025Y-116142304D01*
X79428711Y-116064895D02*
X79273892Y-116064895D01*
X79196482Y-116103600D01*
X79157778Y-116142304D01*
X79080368Y-116258419D01*
X79041663Y-116413238D01*
X79041663Y-116722876D01*
X79080368Y-116800285D01*
X79119073Y-116838990D01*
X79196482Y-116877695D01*
X79351301Y-116877695D01*
X79428711Y-116838990D01*
X79467416Y-116800285D01*
X79506120Y-116722876D01*
X79506120Y-116529352D01*
X79467416Y-116451942D01*
X79428711Y-116413238D01*
X79351301Y-116374533D01*
X79196482Y-116374533D01*
X79119073Y-116413238D01*
X79080368Y-116451942D01*
X79041663Y-116529352D01*
X81924685Y-116142304D02*
X81963390Y-116103600D01*
X82040800Y-116064895D01*
X82234323Y-116064895D01*
X82311733Y-116103600D01*
X82350438Y-116142304D01*
X82389142Y-116219714D01*
X82389142Y-116297123D01*
X82350438Y-116413238D01*
X81885980Y-116877695D01*
X82389142Y-116877695D01*
X82698780Y-116142304D02*
X82737485Y-116103600D01*
X82814895Y-116064895D01*
X83008419Y-116064895D01*
X83085828Y-116103600D01*
X83124533Y-116142304D01*
X83163238Y-116219714D01*
X83163238Y-116297123D01*
X83124533Y-116413238D01*
X82660076Y-116877695D01*
X83163238Y-116877695D01*
X83511580Y-116335828D02*
X83511580Y-117148628D01*
X83511580Y-116374533D02*
X83588990Y-116335828D01*
X83743809Y-116335828D01*
X83821219Y-116374533D01*
X83859923Y-116413238D01*
X83898628Y-116490647D01*
X83898628Y-116722876D01*
X83859923Y-116800285D01*
X83821219Y-116838990D01*
X83743809Y-116877695D01*
X83588990Y-116877695D01*
X83511580Y-116838990D01*
X84517904Y-116451942D02*
X84246971Y-116451942D01*
X84246971Y-116877695D02*
X84246971Y-116064895D01*
X84634019Y-116064895D01*
X100662025Y-120290285D02*
X100623320Y-120328990D01*
X100507206Y-120367695D01*
X100429797Y-120367695D01*
X100313682Y-120328990D01*
X100236273Y-120251580D01*
X100197568Y-120174171D01*
X100158863Y-120019352D01*
X100158863Y-119903238D01*
X100197568Y-119748419D01*
X100236273Y-119671009D01*
X100313682Y-119593600D01*
X100429797Y-119554895D01*
X100507206Y-119554895D01*
X100623320Y-119593600D01*
X100662025Y-119632304D01*
X100932959Y-119554895D02*
X101436120Y-119554895D01*
X101165187Y-119864533D01*
X101281301Y-119864533D01*
X101358711Y-119903238D01*
X101397416Y-119941942D01*
X101436120Y-120019352D01*
X101436120Y-120212876D01*
X101397416Y-120290285D01*
X101358711Y-120328990D01*
X101281301Y-120367695D01*
X101049073Y-120367695D01*
X100971663Y-120328990D01*
X100932959Y-120290285D01*
X103854685Y-119554895D02*
X103932095Y-119554895D01*
X104009504Y-119593600D01*
X104048209Y-119632304D01*
X104086914Y-119709714D01*
X104125619Y-119864533D01*
X104125619Y-120058057D01*
X104086914Y-120212876D01*
X104048209Y-120290285D01*
X104009504Y-120328990D01*
X103932095Y-120367695D01*
X103854685Y-120367695D01*
X103777276Y-120328990D01*
X103738571Y-120290285D01*
X103699866Y-120212876D01*
X103661161Y-120058057D01*
X103661161Y-119864533D01*
X103699866Y-119709714D01*
X103738571Y-119632304D01*
X103777276Y-119593600D01*
X103854685Y-119554895D01*
X104473961Y-120290285D02*
X104512666Y-120328990D01*
X104473961Y-120367695D01*
X104435257Y-120328990D01*
X104473961Y-120290285D01*
X104473961Y-120367695D01*
X105286761Y-120367695D02*
X104822304Y-120367695D01*
X105054533Y-120367695D02*
X105054533Y-119554895D01*
X104977123Y-119671009D01*
X104899714Y-119748419D01*
X104822304Y-119787123D01*
X105983447Y-119825828D02*
X105983447Y-120367695D01*
X105635104Y-119825828D02*
X105635104Y-120251580D01*
X105673809Y-120328990D01*
X105751219Y-120367695D01*
X105867333Y-120367695D01*
X105944742Y-120328990D01*
X105983447Y-120290285D01*
X106641428Y-119941942D02*
X106370495Y-119941942D01*
X106370495Y-120367695D02*
X106370495Y-119554895D01*
X106757542Y-119554895D01*
X116864533Y-90480285D02*
X116825828Y-90518990D01*
X116709714Y-90557695D01*
X116632304Y-90557695D01*
X116516190Y-90518990D01*
X116438780Y-90441580D01*
X116400076Y-90364171D01*
X116361371Y-90209352D01*
X116361371Y-90093238D01*
X116400076Y-89938419D01*
X116438780Y-89861009D01*
X116516190Y-89783600D01*
X116632304Y-89744895D01*
X116709714Y-89744895D01*
X116825828Y-89783600D01*
X116864533Y-89822304D01*
X117638628Y-90557695D02*
X117174171Y-90557695D01*
X117406400Y-90557695D02*
X117406400Y-89744895D01*
X117328990Y-89861009D01*
X117251580Y-89938419D01*
X117174171Y-89977123D01*
X116547295Y-87325314D02*
X116547295Y-87247904D01*
X116586000Y-87170495D01*
X116624704Y-87131790D01*
X116702114Y-87093085D01*
X116856933Y-87054380D01*
X117050457Y-87054380D01*
X117205276Y-87093085D01*
X117282685Y-87131790D01*
X117321390Y-87170495D01*
X117360095Y-87247904D01*
X117360095Y-87325314D01*
X117321390Y-87402723D01*
X117282685Y-87441428D01*
X117205276Y-87480133D01*
X117050457Y-87518838D01*
X116856933Y-87518838D01*
X116702114Y-87480133D01*
X116624704Y-87441428D01*
X116586000Y-87402723D01*
X116547295Y-87325314D01*
X117282685Y-86706038D02*
X117321390Y-86667333D01*
X117360095Y-86706038D01*
X117321390Y-86744742D01*
X117282685Y-86706038D01*
X117360095Y-86706038D01*
X117360095Y-85893238D02*
X117360095Y-86357695D01*
X117360095Y-86125466D02*
X116547295Y-86125466D01*
X116663409Y-86202876D01*
X116740819Y-86280285D01*
X116779523Y-86357695D01*
X116818228Y-85196552D02*
X117360095Y-85196552D01*
X116818228Y-85544895D02*
X117243980Y-85544895D01*
X117321390Y-85506190D01*
X117360095Y-85428780D01*
X117360095Y-85312666D01*
X117321390Y-85235257D01*
X117282685Y-85196552D01*
X116934342Y-84538571D02*
X116934342Y-84809504D01*
X117360095Y-84809504D02*
X116547295Y-84809504D01*
X116547295Y-84422457D01*
X76445104Y-90833320D02*
X75864533Y-90833320D01*
X75748419Y-90794616D01*
X75671009Y-90717206D01*
X75632304Y-90601092D01*
X75632304Y-90523682D01*
X76445104Y-91142959D02*
X76445104Y-91646120D01*
X76135466Y-91375187D01*
X76135466Y-91491301D01*
X76096761Y-91568711D01*
X76058057Y-91607416D01*
X75980647Y-91646120D01*
X75787123Y-91646120D01*
X75709714Y-91607416D01*
X75671009Y-91568711D01*
X75632304Y-91491301D01*
X75632304Y-91259073D01*
X75671009Y-91181663D01*
X75709714Y-91142959D01*
X75984704Y-108532990D02*
X75326723Y-108532990D01*
X75249314Y-108571695D01*
X75210609Y-108610400D01*
X75171904Y-108687809D01*
X75171904Y-108842628D01*
X75210609Y-108920038D01*
X75249314Y-108958742D01*
X75326723Y-108997447D01*
X75984704Y-108997447D01*
X75404133Y-109345790D02*
X75404133Y-109732838D01*
X75171904Y-109268380D02*
X75984704Y-109539314D01*
X75171904Y-109810247D01*
X75171904Y-110545638D02*
X75558952Y-110274704D01*
X75171904Y-110081180D02*
X75984704Y-110081180D01*
X75984704Y-110390819D01*
X75946000Y-110468228D01*
X75907295Y-110506933D01*
X75829885Y-110545638D01*
X75713771Y-110545638D01*
X75636361Y-110506933D01*
X75597657Y-110468228D01*
X75558952Y-110390819D01*
X75558952Y-110081180D01*
X75984704Y-110777866D02*
X75984704Y-111242323D01*
X75171904Y-111010095D02*
X75984704Y-111010095D01*
X78457304Y-88227504D02*
X78844352Y-87956571D01*
X78457304Y-87763047D02*
X79270104Y-87763047D01*
X79270104Y-88072685D01*
X79231400Y-88150095D01*
X79192695Y-88188800D01*
X79115285Y-88227504D01*
X78999171Y-88227504D01*
X78921761Y-88188800D01*
X78883057Y-88150095D01*
X78844352Y-88072685D01*
X78844352Y-87763047D01*
X78883057Y-88575847D02*
X78883057Y-88846780D01*
X78457304Y-88962895D02*
X78457304Y-88575847D01*
X79270104Y-88575847D01*
X79270104Y-88962895D01*
X78496009Y-89272533D02*
X78457304Y-89388647D01*
X78457304Y-89582171D01*
X78496009Y-89659580D01*
X78534714Y-89698285D01*
X78612123Y-89736990D01*
X78689533Y-89736990D01*
X78766942Y-89698285D01*
X78805647Y-89659580D01*
X78844352Y-89582171D01*
X78883057Y-89427352D01*
X78921761Y-89349942D01*
X78960466Y-89311238D01*
X79037876Y-89272533D01*
X79115285Y-89272533D01*
X79192695Y-89311238D01*
X79231400Y-89349942D01*
X79270104Y-89427352D01*
X79270104Y-89620876D01*
X79231400Y-89736990D01*
X78883057Y-90085333D02*
X78883057Y-90356266D01*
X78457304Y-90472380D02*
X78457304Y-90085333D01*
X79270104Y-90085333D01*
X79270104Y-90472380D01*
X79270104Y-90704609D02*
X79270104Y-91169066D01*
X78457304Y-90936838D02*
X79270104Y-90936838D01*
X96774812Y-78054895D02*
X96774812Y-78635466D01*
X96736107Y-78751580D01*
X96658698Y-78828990D01*
X96542583Y-78867695D01*
X96465174Y-78867695D01*
X97587612Y-78867695D02*
X97123155Y-78867695D01*
X97355383Y-78867695D02*
X97355383Y-78054895D01*
X97277974Y-78171009D01*
X97200564Y-78248419D01*
X97123155Y-78287123D01*
X81292583Y-81367695D02*
X81292583Y-80554895D01*
X82144088Y-81290285D02*
X82105383Y-81328990D01*
X81989269Y-81367695D01*
X81911860Y-81367695D01*
X81795745Y-81328990D01*
X81718336Y-81251580D01*
X81679631Y-81174171D01*
X81640926Y-81019352D01*
X81640926Y-80903238D01*
X81679631Y-80748419D01*
X81718336Y-80671009D01*
X81795745Y-80593600D01*
X81911860Y-80554895D01*
X81989269Y-80554895D01*
X82105383Y-80593600D01*
X82144088Y-80632304D01*
X82453726Y-81328990D02*
X82569840Y-81367695D01*
X82763364Y-81367695D01*
X82840774Y-81328990D01*
X82879479Y-81290285D01*
X82918183Y-81212876D01*
X82918183Y-81135466D01*
X82879479Y-81058057D01*
X82840774Y-81019352D01*
X82763364Y-80980647D01*
X82608545Y-80941942D01*
X82531136Y-80903238D01*
X82492431Y-80864533D01*
X82453726Y-80787123D01*
X82453726Y-80709714D01*
X82492431Y-80632304D01*
X82531136Y-80593600D01*
X82608545Y-80554895D01*
X82802069Y-80554895D01*
X82918183Y-80593600D01*
X83266526Y-81367695D02*
X83266526Y-80554895D01*
X83576164Y-80554895D01*
X83653574Y-80593600D01*
X83692279Y-80632304D01*
X83730983Y-80709714D01*
X83730983Y-80825828D01*
X83692279Y-80903238D01*
X83653574Y-80941942D01*
X83576164Y-80980647D01*
X83266526Y-80980647D01*
M02*
